<?xml version="1.0" encoding="utf-8" standalone="no"?>
<!DOCTYPE svg PUBLIC "-//W3C//DTD SVG 1.1//EN"
  "http://www.w3.org/Graphics/SVG/1.1/DTD/svg11.dtd">
<svg xmlns:xlink="http://www.w3.org/1999/xlink" width="1008pt" height="576pt" viewBox="0 0 1008 576" xmlns="http://www.w3.org/2000/svg" version="1.1">
 <metadata>
  <rdf:RDF xmlns:dc="http://purl.org/dc/elements/1.1/" xmlns:cc="http://creativecommons.org/ns#" xmlns:rdf="http://www.w3.org/1999/02/22-rdf-syntax-ns#">
   <cc:Work>
    <dc:type rdf:resource="http://purl.org/dc/dcmitype/StillImage"/>
    <dc:date>2025-01-16T17:10:07.875353</dc:date>
    <dc:format>image/svg+xml</dc:format>
    <dc:creator>
     <cc:Agent>
      <dc:title>Matplotlib v3.8.0, https://matplotlib.org/</dc:title>
     </cc:Agent>
    </dc:creator>
   </cc:Work>
  </rdf:RDF>
 </metadata>
 <defs>
  <style type="text/css">*{stroke-linejoin: round; stroke-linecap: butt}</style>
 </defs>
 <g id="figure_1">
  <g id="patch_1">
   <path d="M 0 576 
L 1008 576 
L 1008 0 
L 0 0 
z
" style="fill: #ffffff"/>
  </g>
  <g id="axes_1">
   <g id="patch_2">
    <path d="M 50.87 518.74 
L 855.76 518.74 
L 855.76 26.88 
L 50.87 26.88 
z
" style="fill: #ffffff"/>
   </g>
   <g id="patch_3">
    <path d="M 61.460658 518.74 
L 82.641974 518.74 
L 82.641974 357.789475 
L 61.460658 357.789475 
z
" clip-path="url(#pc6733ae147)" style="fill: #2a9d8f"/>
   </g>
   <g id="patch_4">
    <path d="M 103.823289 518.74 
L 125.004605 518.74 
L 125.004605 345.778242 
L 103.823289 345.778242 
z
" clip-path="url(#pc6733ae147)" style="fill: #2a9d8f"/>
   </g>
   <g id="patch_5">
    <path d="M 146.185921 518.74 
L 167.367237 518.74 
L 167.367237 355.387228 
L 146.185921 355.387228 
z
" clip-path="url(#pc6733ae147)" style="fill: #2a9d8f"/>
   </g>
   <g id="patch_6">
    <path d="M 188.548553 518.74 
L 209.729868 518.74 
L 209.729868 374.605201 
L 188.548553 374.605201 
z
" clip-path="url(#pc6733ae147)" style="fill: #2a9d8f"/>
   </g>
   <g id="patch_7">
    <path d="M 230.911184 518.74 
L 252.0925 518.74 
L 252.0925 350.582735 
L 230.911184 350.582735 
z
" clip-path="url(#pc6733ae147)" style="fill: #2a9d8f"/>
   </g>
   <g id="patch_8">
    <path d="M 273.273816 518.74 
L 294.455132 518.74 
L 294.455132 372.202955 
L 273.273816 372.202955 
z
" clip-path="url(#pc6733ae147)" style="fill: #2a9d8f"/>
   </g>
   <g id="patch_9">
    <path d="M 315.636447 518.74 
L 336.817763 518.74 
L 336.817763 331.364762 
L 315.636447 331.364762 
z
" clip-path="url(#pc6733ae147)" style="fill: #2a9d8f"/>
   </g>
   <g id="patch_10">
    <path d="M 357.999079 518.74 
L 379.180395 518.74 
L 379.180395 357.789475 
L 357.999079 357.789475 
z
" clip-path="url(#pc6733ae147)" style="fill: #2a9d8f"/>
   </g>
   <g id="patch_11">
    <path d="M 400.361711 518.74 
L 421.543026 518.74 
L 421.543026 367.398462 
L 400.361711 367.398462 
z
" clip-path="url(#pc6733ae147)" style="fill: #2a9d8f"/>
   </g>
   <g id="patch_12">
    <path d="M 442.724342 518.74 
L 463.905658 518.74 
L 463.905658 367.398462 
L 442.724342 367.398462 
z
" clip-path="url(#pc6733ae147)" style="fill: #2a9d8f"/>
   </g>
   <g id="patch_13">
    <path d="M 485.086974 518.74 
L 506.268289 518.74 
L 506.268289 393.823175 
L 485.086974 393.823175 
z
" clip-path="url(#pc6733ae147)" style="fill: #2a9d8f"/>
   </g>
   <g id="patch_14">
    <path d="M 527.449605 518.74 
L 548.630921 518.74 
L 548.630921 391.420928 
L 527.449605 391.420928 
z
" clip-path="url(#pc6733ae147)" style="fill: #2a9d8f"/>
   </g>
   <g id="patch_15">
    <path d="M 569.812237 518.74 
L 590.993553 518.74 
L 590.993553 364.996215 
L 569.812237 364.996215 
z
" clip-path="url(#pc6733ae147)" style="fill: #2a9d8f"/>
   </g>
   <g id="patch_16">
    <path d="M 612.174868 518.74 
L 633.356184 518.74 
L 633.356184 441.868107 
L 612.174868 441.868107 
z
" clip-path="url(#pc6733ae147)" style="fill: #2a9d8f"/>
   </g>
   <g id="patch_17">
    <path d="M 654.5375 518.74 
L 675.718816 518.74 
L 675.718816 391.420928 
L 654.5375 391.420928 
z
" clip-path="url(#pc6733ae147)" style="fill: #2a9d8f"/>
   </g>
   <g id="patch_18">
    <path d="M 696.900132 518.74 
L 718.081447 518.74 
L 718.081447 408.236654 
L 696.900132 408.236654 
z
" clip-path="url(#pc6733ae147)" style="fill: #2a9d8f"/>
   </g>
   <g id="patch_19">
    <path d="M 739.262763 518.74 
L 760.444079 518.74 
L 760.444079 401.029915 
L 739.262763 401.029915 
z
" clip-path="url(#pc6733ae147)" style="fill: #2a9d8f"/>
   </g>
   <g id="patch_20">
    <path d="M 781.625395 518.74 
L 802.806711 518.74 
L 802.806711 364.996215 
L 781.625395 364.996215 
z
" clip-path="url(#pc6733ae147)" style="fill: #2a9d8f"/>
   </g>
   <g id="patch_21">
    <path d="M 823.988026 518.74 
L 845.169342 518.74 
L 845.169342 429.856874 
L 823.988026 429.856874 
z
" clip-path="url(#pc6733ae147)" style="fill: #2a9d8f"/>
   </g>
   <g id="patch_22">
    <path d="M 61.460658 518.74 
L 82.641974 518.74 
L 82.641974 518.74 
L 61.460658 518.74 
z
" clip-path="url(#pc6733ae147)" style="fill: #264653"/>
   </g>
   <g id="patch_23">
    <path d="M 103.823289 518.74 
L 125.004605 518.74 
L 125.004605 518.74 
L 103.823289 518.74 
z
" clip-path="url(#pc6733ae147)" style="fill: #264653"/>
   </g>
   <g id="patch_24">
    <path d="M 146.185921 518.74 
L 167.367237 518.74 
L 167.367237 518.74 
L 146.185921 518.74 
z
" clip-path="url(#pc6733ae147)" style="fill: #264653"/>
   </g>
   <g id="patch_25">
    <path d="M 188.548553 374.605201 
L 209.729868 374.605201 
L 209.729868 372.202955 
L 188.548553 372.202955 
z
" clip-path="url(#pc6733ae147)" style="fill: #264653"/>
   </g>
   <g id="patch_26">
    <path d="M 230.911184 518.74 
L 252.0925 518.74 
L 252.0925 518.74 
L 230.911184 518.74 
z
" clip-path="url(#pc6733ae147)" style="fill: #264653"/>
   </g>
   <g id="patch_27">
    <path d="M 273.273816 518.74 
L 294.455132 518.74 
L 294.455132 518.74 
L 273.273816 518.74 
z
" clip-path="url(#pc6733ae147)" style="fill: #264653"/>
   </g>
   <g id="patch_28">
    <path d="M 315.636447 518.74 
L 336.817763 518.74 
L 336.817763 518.74 
L 315.636447 518.74 
z
" clip-path="url(#pc6733ae147)" style="fill: #264653"/>
   </g>
   <g id="patch_29">
    <path d="M 357.999079 518.74 
L 379.180395 518.74 
L 379.180395 518.74 
L 357.999079 518.74 
z
" clip-path="url(#pc6733ae147)" style="fill: #264653"/>
   </g>
   <g id="patch_30">
    <path d="M 400.361711 518.74 
L 421.543026 518.74 
L 421.543026 518.74 
L 400.361711 518.74 
z
" clip-path="url(#pc6733ae147)" style="fill: #264653"/>
   </g>
   <g id="patch_31">
    <path d="M 442.724342 518.74 
L 463.905658 518.74 
L 463.905658 518.74 
L 442.724342 518.74 
z
" clip-path="url(#pc6733ae147)" style="fill: #264653"/>
   </g>
   <g id="patch_32">
    <path d="M 485.086974 393.823175 
L 506.268289 393.823175 
L 506.268289 391.420928 
L 485.086974 391.420928 
z
" clip-path="url(#pc6733ae147)" style="fill: #264653"/>
   </g>
   <g id="patch_33">
    <path d="M 527.449605 518.74 
L 548.630921 518.74 
L 548.630921 518.74 
L 527.449605 518.74 
z
" clip-path="url(#pc6733ae147)" style="fill: #264653"/>
   </g>
   <g id="patch_34">
    <path d="M 569.812237 518.74 
L 590.993553 518.74 
L 590.993553 518.74 
L 569.812237 518.74 
z
" clip-path="url(#pc6733ae147)" style="fill: #264653"/>
   </g>
   <g id="patch_35">
    <path d="M 612.174868 518.74 
L 633.356184 518.74 
L 633.356184 518.74 
L 612.174868 518.74 
z
" clip-path="url(#pc6733ae147)" style="fill: #264653"/>
   </g>
   <g id="patch_36">
    <path d="M 654.5375 518.74 
L 675.718816 518.74 
L 675.718816 518.74 
L 654.5375 518.74 
z
" clip-path="url(#pc6733ae147)" style="fill: #264653"/>
   </g>
   <g id="patch_37">
    <path d="M 696.900132 518.74 
L 718.081447 518.74 
L 718.081447 518.74 
L 696.900132 518.74 
z
" clip-path="url(#pc6733ae147)" style="fill: #264653"/>
   </g>
   <g id="patch_38">
    <path d="M 739.262763 518.74 
L 760.444079 518.74 
L 760.444079 518.74 
L 739.262763 518.74 
z
" clip-path="url(#pc6733ae147)" style="fill: #264653"/>
   </g>
   <g id="patch_39">
    <path d="M 781.625395 518.74 
L 802.806711 518.74 
L 802.806711 518.74 
L 781.625395 518.74 
z
" clip-path="url(#pc6733ae147)" style="fill: #264653"/>
   </g>
   <g id="patch_40">
    <path d="M 823.988026 518.74 
L 845.169342 518.74 
L 845.169342 518.74 
L 823.988026 518.74 
z
" clip-path="url(#pc6733ae147)" style="fill: #264653"/>
   </g>
   <g id="patch_41">
    <path d="M 61.460658 357.789475 
L 82.641974 357.789475 
L 82.641974 321.755775 
L 61.460658 321.755775 
z
" clip-path="url(#pc6733ae147)" style="fill: #e9c46a"/>
   </g>
   <g id="patch_42">
    <path d="M 103.823289 345.778242 
L 125.004605 345.778242 
L 125.004605 316.951282 
L 103.823289 316.951282 
z
" clip-path="url(#pc6733ae147)" style="fill: #e9c46a"/>
   </g>
   <g id="patch_43">
    <path d="M 146.185921 355.387228 
L 167.367237 355.387228 
L 167.367237 331.364762 
L 146.185921 331.364762 
z
" clip-path="url(#pc6733ae147)" style="fill: #e9c46a"/>
   </g>
   <g id="patch_44">
    <path d="M 188.548553 372.202955 
L 209.729868 372.202955 
L 209.729868 328.962515 
L 188.548553 328.962515 
z
" clip-path="url(#pc6733ae147)" style="fill: #e9c46a"/>
   </g>
   <g id="patch_45">
    <path d="M 230.911184 350.582735 
L 252.0925 350.582735 
L 252.0925 316.951282 
L 230.911184 316.951282 
z
" clip-path="url(#pc6733ae147)" style="fill: #e9c46a"/>
   </g>
   <g id="patch_46">
    <path d="M 273.273816 372.202955 
L 294.455132 372.202955 
L 294.455132 321.755775 
L 273.273816 321.755775 
z
" clip-path="url(#pc6733ae147)" style="fill: #e9c46a"/>
   </g>
   <g id="patch_47">
    <path d="M 315.636447 331.364762 
L 336.817763 331.364762 
L 336.817763 278.515336 
L 315.636447 278.515336 
z
" clip-path="url(#pc6733ae147)" style="fill: #e9c46a"/>
   </g>
   <g id="patch_48">
    <path d="M 357.999079 357.789475 
L 379.180395 357.789475 
L 379.180395 309.744542 
L 357.999079 309.744542 
z
" clip-path="url(#pc6733ae147)" style="fill: #e9c46a"/>
   </g>
   <g id="patch_49">
    <path d="M 400.361711 367.398462 
L 421.543026 367.398462 
L 421.543026 328.962515 
L 400.361711 328.962515 
z
" clip-path="url(#pc6733ae147)" style="fill: #e9c46a"/>
   </g>
   <g id="patch_50">
    <path d="M 442.724342 367.398462 
L 463.905658 367.398462 
L 463.905658 328.962515 
L 442.724342 328.962515 
z
" clip-path="url(#pc6733ae147)" style="fill: #e9c46a"/>
   </g>
   <g id="patch_51">
    <path d="M 485.086974 391.420928 
L 506.268289 391.420928 
L 506.268289 372.202955 
L 485.086974 372.202955 
z
" clip-path="url(#pc6733ae147)" style="fill: #e9c46a"/>
   </g>
   <g id="patch_52">
    <path d="M 527.449605 391.420928 
L 548.630921 391.420928 
L 548.630921 357.789475 
L 527.449605 357.789475 
z
" clip-path="url(#pc6733ae147)" style="fill: #e9c46a"/>
   </g>
   <g id="patch_53">
    <path d="M 569.812237 364.996215 
L 590.993553 364.996215 
L 590.993553 328.962515 
L 569.812237 328.962515 
z
" clip-path="url(#pc6733ae147)" style="fill: #e9c46a"/>
   </g>
   <g id="patch_54">
    <path d="M 612.174868 441.868107 
L 633.356184 441.868107 
L 633.356184 401.029915 
L 612.174868 401.029915 
z
" clip-path="url(#pc6733ae147)" style="fill: #e9c46a"/>
   </g>
   <g id="patch_55">
    <path d="M 654.5375 391.420928 
L 675.718816 391.420928 
L 675.718816 345.778242 
L 654.5375 345.778242 
z
" clip-path="url(#pc6733ae147)" style="fill: #e9c46a"/>
   </g>
   <g id="patch_56">
    <path d="M 696.900132 408.236654 
L 718.081447 408.236654 
L 718.081447 379.409695 
L 696.900132 379.409695 
z
" clip-path="url(#pc6733ae147)" style="fill: #e9c46a"/>
   </g>
   <g id="patch_57">
    <path d="M 739.262763 401.029915 
L 760.444079 401.029915 
L 760.444079 362.593968 
L 739.262763 362.593968 
z
" clip-path="url(#pc6733ae147)" style="fill: #e9c46a"/>
   </g>
   <g id="patch_58">
    <path d="M 781.625395 364.996215 
L 802.806711 364.996215 
L 802.806711 319.353529 
L 781.625395 319.353529 
z
" clip-path="url(#pc6733ae147)" style="fill: #e9c46a"/>
   </g>
   <g id="patch_59">
    <path d="M 823.988026 429.856874 
L 845.169342 429.856874 
L 845.169342 415.443394 
L 823.988026 415.443394 
z
" clip-path="url(#pc6733ae147)" style="fill: #e9c46a"/>
   </g>
   <g id="patch_60">
    <path d="M 61.460658 321.755775 
L 82.641974 321.755775 
L 82.641974 158.403004 
L 61.460658 158.403004 
z
" clip-path="url(#pc6733ae147)" style="fill: #dbdbd2"/>
   </g>
   <g id="patch_61">
    <path d="M 103.823289 316.951282 
L 125.004605 316.951282 
L 125.004605 148.794017 
L 103.823289 148.794017 
z
" clip-path="url(#pc6733ae147)" style="fill: #dbdbd2"/>
   </g>
   <g id="patch_62">
    <path d="M 146.185921 331.364762 
L 167.367237 331.364762 
L 167.367237 170.414237 
L 146.185921 170.414237 
z
" clip-path="url(#pc6733ae147)" style="fill: #dbdbd2"/>
   </g>
   <g id="patch_63">
    <path d="M 188.548553 328.962515 
L 209.729868 328.962515 
L 209.729868 110.358071 
L 188.548553 110.358071 
z
" clip-path="url(#pc6733ae147)" style="fill: #dbdbd2"/>
   </g>
   <g id="patch_64">
    <path d="M 230.911184 316.951282 
L 252.0925 316.951282 
L 252.0925 136.782784 
L 230.911184 136.782784 
z
" clip-path="url(#pc6733ae147)" style="fill: #dbdbd2"/>
   </g>
   <g id="patch_65">
    <path d="M 273.273816 321.755775 
L 294.455132 321.755775 
L 294.455132 86.335604 
L 273.273816 86.335604 
z
" clip-path="url(#pc6733ae147)" style="fill: #dbdbd2"/>
   </g>
   <g id="patch_66">
    <path d="M 315.636447 278.515336 
L 336.817763 278.515336 
L 336.817763 100.749084 
L 315.636447 100.749084 
z
" clip-path="url(#pc6733ae147)" style="fill: #dbdbd2"/>
   </g>
   <g id="patch_67">
    <path d="M 357.999079 309.744542 
L 379.180395 309.744542 
L 379.180395 148.794017 
L 357.999079 148.794017 
z
" clip-path="url(#pc6733ae147)" style="fill: #dbdbd2"/>
   </g>
   <g id="patch_68">
    <path d="M 400.361711 328.962515 
L 421.543026 328.962515 
L 421.543026 187.229963 
L 400.361711 187.229963 
z
" clip-path="url(#pc6733ae147)" style="fill: #dbdbd2"/>
   </g>
   <g id="patch_69">
    <path d="M 442.724342 328.962515 
L 463.905658 328.962515 
L 463.905658 165.609744 
L 442.724342 165.609744 
z
" clip-path="url(#pc6733ae147)" style="fill: #dbdbd2"/>
   </g>
   <g id="patch_70">
    <path d="M 485.086974 372.202955 
L 506.268289 372.202955 
L 506.268289 244.883883 
L 485.086974 244.883883 
z
" clip-path="url(#pc6733ae147)" style="fill: #dbdbd2"/>
   </g>
   <g id="patch_71">
    <path d="M 527.449605 357.789475 
L 548.630921 357.789475 
L 548.630921 208.850183 
L 527.449605 208.850183 
z
" clip-path="url(#pc6733ae147)" style="fill: #dbdbd2"/>
   </g>
   <g id="patch_72">
    <path d="M 569.812237 328.962515 
L 590.993553 328.962515 
L 590.993553 115.162564 
L 569.812237 115.162564 
z
" clip-path="url(#pc6733ae147)" style="fill: #dbdbd2"/>
   </g>
   <g id="patch_73">
    <path d="M 612.174868 401.029915 
L 633.356184 401.029915 
L 633.356184 300.135556 
L 612.174868 300.135556 
z
" clip-path="url(#pc6733ae147)" style="fill: #dbdbd2"/>
   </g>
   <g id="patch_74">
    <path d="M 654.5375 345.778242 
L 675.718816 345.778242 
L 675.718816 196.83895 
L 654.5375 196.83895 
z
" clip-path="url(#pc6733ae147)" style="fill: #dbdbd2"/>
   </g>
   <g id="patch_75">
    <path d="M 696.900132 379.409695 
L 718.081447 379.409695 
L 718.081447 249.688376 
L 696.900132 249.688376 
z
" clip-path="url(#pc6733ae147)" style="fill: #dbdbd2"/>
   </g>
   <g id="patch_76">
    <path d="M 739.262763 362.593968 
L 760.444079 362.593968 
L 760.444079 201.643443 
L 739.262763 201.643443 
z
" clip-path="url(#pc6733ae147)" style="fill: #dbdbd2"/>
   </g>
   <g id="patch_77">
    <path d="M 781.625395 319.353529 
L 802.806711 319.353529 
L 802.806711 119.967057 
L 781.625395 119.967057 
z
" clip-path="url(#pc6733ae147)" style="fill: #dbdbd2"/>
   </g>
   <g id="patch_78">
    <path d="M 823.988026 415.443394 
L 845.169342 415.443394 
L 845.169342 348.180488 
L 823.988026 348.180488 
z
" clip-path="url(#pc6733ae147)" style="fill: #dbdbd2"/>
   </g>
   <g id="patch_79">
    <path d="M 61.460658 158.403004 
L 82.641974 158.403004 
L 82.641974 156.000757 
L 61.460658 156.000757 
z
" clip-path="url(#pc6733ae147)" style="fill: #83b5ce"/>
   </g>
   <g id="patch_80">
    <path d="M 103.823289 518.74 
L 125.004605 518.74 
L 125.004605 518.74 
L 103.823289 518.74 
z
" clip-path="url(#pc6733ae147)" style="fill: #83b5ce"/>
   </g>
   <g id="patch_81">
    <path d="M 146.185921 518.74 
L 167.367237 518.74 
L 167.367237 518.74 
L 146.185921 518.74 
z
" clip-path="url(#pc6733ae147)" style="fill: #83b5ce"/>
   </g>
   <g id="patch_82">
    <path d="M 188.548553 110.358071 
L 209.729868 110.358071 
L 209.729868 107.955824 
L 188.548553 107.955824 
z
" clip-path="url(#pc6733ae147)" style="fill: #83b5ce"/>
   </g>
   <g id="patch_83">
    <path d="M 230.911184 136.782784 
L 252.0925 136.782784 
L 252.0925 131.978291 
L 230.911184 131.978291 
z
" clip-path="url(#pc6733ae147)" style="fill: #83b5ce"/>
   </g>
   <g id="patch_84">
    <path d="M 273.273816 86.335604 
L 294.455132 86.335604 
L 294.455132 83.933358 
L 273.273816 83.933358 
z
" clip-path="url(#pc6733ae147)" style="fill: #83b5ce"/>
   </g>
   <g id="patch_85">
    <path d="M 315.636447 518.74 
L 336.817763 518.74 
L 336.817763 518.74 
L 315.636447 518.74 
z
" clip-path="url(#pc6733ae147)" style="fill: #83b5ce"/>
   </g>
   <g id="patch_86">
    <path d="M 357.999079 518.74 
L 379.180395 518.74 
L 379.180395 518.74 
L 357.999079 518.74 
z
" clip-path="url(#pc6733ae147)" style="fill: #83b5ce"/>
   </g>
   <g id="patch_87">
    <path d="M 400.361711 518.74 
L 421.543026 518.74 
L 421.543026 518.74 
L 400.361711 518.74 
z
" clip-path="url(#pc6733ae147)" style="fill: #83b5ce"/>
   </g>
   <g id="patch_88">
    <path d="M 442.724342 165.609744 
L 463.905658 165.609744 
L 463.905658 158.403004 
L 442.724342 158.403004 
z
" clip-path="url(#pc6733ae147)" style="fill: #83b5ce"/>
   </g>
   <g id="patch_89">
    <path d="M 485.086974 518.74 
L 506.268289 518.74 
L 506.268289 518.74 
L 485.086974 518.74 
z
" clip-path="url(#pc6733ae147)" style="fill: #83b5ce"/>
   </g>
   <g id="patch_90">
    <path d="M 527.449605 518.74 
L 548.630921 518.74 
L 548.630921 518.74 
L 527.449605 518.74 
z
" clip-path="url(#pc6733ae147)" style="fill: #83b5ce"/>
   </g>
   <g id="patch_91">
    <path d="M 569.812237 518.74 
L 590.993553 518.74 
L 590.993553 518.74 
L 569.812237 518.74 
z
" clip-path="url(#pc6733ae147)" style="fill: #83b5ce"/>
   </g>
   <g id="patch_92">
    <path d="M 612.174868 300.135556 
L 633.356184 300.135556 
L 633.356184 297.733309 
L 612.174868 297.733309 
z
" clip-path="url(#pc6733ae147)" style="fill: #83b5ce"/>
   </g>
   <g id="patch_93">
    <path d="M 654.5375 196.83895 
L 675.718816 196.83895 
L 675.718816 194.436703 
L 654.5375 194.436703 
z
" clip-path="url(#pc6733ae147)" style="fill: #83b5ce"/>
   </g>
   <g id="patch_94">
    <path d="M 696.900132 249.688376 
L 718.081447 249.688376 
L 718.081447 240.079389 
L 696.900132 240.079389 
z
" clip-path="url(#pc6733ae147)" style="fill: #83b5ce"/>
   </g>
   <g id="patch_95">
    <path d="M 739.262763 201.643443 
L 760.444079 201.643443 
L 760.444079 196.83895 
L 739.262763 196.83895 
z
" clip-path="url(#pc6733ae147)" style="fill: #83b5ce"/>
   </g>
   <g id="patch_96">
    <path d="M 781.625395 119.967057 
L 802.806711 119.967057 
L 802.806711 112.760317 
L 781.625395 112.760317 
z
" clip-path="url(#pc6733ae147)" style="fill: #83b5ce"/>
   </g>
   <g id="patch_97">
    <path d="M 823.988026 518.74 
L 845.169342 518.74 
L 845.169342 518.74 
L 823.988026 518.74 
z
" clip-path="url(#pc6733ae147)" style="fill: #83b5ce"/>
   </g>
   <g id="patch_98">
    <path d="M 61.460658 156.000757 
L 82.641974 156.000757 
L 82.641974 122.369304 
L 61.460658 122.369304 
z
" clip-path="url(#pc6733ae147)" style="fill: #e36b53"/>
   </g>
   <g id="patch_99">
    <path d="M 103.823289 148.794017 
L 125.004605 148.794017 
L 125.004605 127.173797 
L 103.823289 127.173797 
z
" clip-path="url(#pc6733ae147)" style="fill: #e36b53"/>
   </g>
   <g id="patch_100">
    <path d="M 146.185921 170.414237 
L 167.367237 170.414237 
L 167.367237 160.80525 
L 146.185921 160.80525 
z
" clip-path="url(#pc6733ae147)" style="fill: #e36b53"/>
   </g>
   <g id="patch_101">
    <path d="M 188.548553 107.955824 
L 209.729868 107.955824 
L 209.729868 98.346838 
L 188.548553 98.346838 
z
" clip-path="url(#pc6733ae147)" style="fill: #e36b53"/>
   </g>
   <g id="patch_102">
    <path d="M 230.911184 131.978291 
L 252.0925 131.978291 
L 252.0925 64.715385 
L 230.911184 64.715385 
z
" clip-path="url(#pc6733ae147)" style="fill: #e36b53"/>
   </g>
   <g id="patch_103">
    <path d="M 273.273816 83.933358 
L 294.455132 83.933358 
L 294.455132 50.301905 
L 273.273816 50.301905 
z
" clip-path="url(#pc6733ae147)" style="fill: #e36b53"/>
   </g>
   <g id="patch_104">
    <path d="M 315.636447 100.749084 
L 336.817763 100.749084 
L 336.817763 64.715385 
L 315.636447 64.715385 
z
" clip-path="url(#pc6733ae147)" style="fill: #e36b53"/>
   </g>
   <g id="patch_105">
    <path d="M 357.999079 148.794017 
L 379.180395 148.794017 
L 379.180395 122.369304 
L 357.999079 122.369304 
z
" clip-path="url(#pc6733ae147)" style="fill: #e36b53"/>
   </g>
   <g id="patch_106">
    <path d="M 400.361711 187.229963 
L 421.543026 187.229963 
L 421.543026 180.023223 
L 400.361711 180.023223 
z
" clip-path="url(#pc6733ae147)" style="fill: #e36b53"/>
   </g>
   <g id="patch_107">
    <path d="M 442.724342 158.403004 
L 463.905658 158.403004 
L 463.905658 151.196264 
L 442.724342 151.196264 
z
" clip-path="url(#pc6733ae147)" style="fill: #e36b53"/>
   </g>
   <g id="patch_108">
    <path d="M 485.086974 244.883883 
L 506.268289 244.883883 
L 506.268289 232.87265 
L 485.086974 232.87265 
z
" clip-path="url(#pc6733ae147)" style="fill: #e36b53"/>
   </g>
   <g id="patch_109">
    <path d="M 527.449605 208.850183 
L 548.630921 208.850183 
L 548.630921 201.643443 
L 527.449605 201.643443 
z
" clip-path="url(#pc6733ae147)" style="fill: #e36b53"/>
   </g>
   <g id="patch_110">
    <path d="M 569.812237 115.162564 
L 590.993553 115.162564 
L 590.993553 98.346838 
L 569.812237 98.346838 
z
" clip-path="url(#pc6733ae147)" style="fill: #e36b53"/>
   </g>
   <g id="patch_111">
    <path d="M 612.174868 297.733309 
L 633.356184 297.733309 
L 633.356184 273.710842 
L 612.174868 273.710842 
z
" clip-path="url(#pc6733ae147)" style="fill: #e36b53"/>
   </g>
   <g id="patch_112">
    <path d="M 654.5375 194.436703 
L 675.718816 194.436703 
L 675.718816 170.414237 
L 654.5375 170.414237 
z
" clip-path="url(#pc6733ae147)" style="fill: #e36b53"/>
   </g>
   <g id="patch_113">
    <path d="M 696.900132 240.079389 
L 718.081447 240.079389 
L 718.081447 225.66591 
L 696.900132 225.66591 
z
" clip-path="url(#pc6733ae147)" style="fill: #e36b53"/>
   </g>
   <g id="patch_114">
    <path d="M 739.262763 196.83895 
L 760.444079 196.83895 
L 760.444079 175.21873 
L 739.262763 175.21873 
z
" clip-path="url(#pc6733ae147)" style="fill: #e36b53"/>
   </g>
   <g id="patch_115">
    <path d="M 781.625395 112.760317 
L 802.806711 112.760317 
L 802.806711 76.726618 
L 781.625395 76.726618 
z
" clip-path="url(#pc6733ae147)" style="fill: #e36b53"/>
   </g>
   <g id="patch_116">
    <path d="M 823.988026 348.180488 
L 845.169342 348.180488 
L 845.169342 338.571502 
L 823.988026 338.571502 
z
" clip-path="url(#pc6733ae147)" style="fill: #e36b53"/>
   </g>
   <g id="matplotlib.axis_1">
    <g id="xtick_1">
     <g id="line2d_1">
      <defs>
       <path id="m3688b5dd7b" d="M 0 0 
L 0 3.5 
" style="stroke: #000000; stroke-width: 0.8"/>
      </defs>
      <g>
       <use xlink:href="#m3688b5dd7b" x="72.051316" y="518.74" style="stroke: #000000; stroke-width: 0.8"/>
      </g>
     </g>
     <g id="text_1">
      <!-- 2006 -->
      <g transform="translate(74.810691 551.19) rotate(-90) scale(0.1 -0.1)">
       <defs>
        <path id="DejaVuSans-32" d="M 1228 531 
L 3431 531 
L 3431 0 
L 469 0 
L 469 531 
Q 828 903 1448 1529 
Q 2069 2156 2228 2338 
Q 2531 2678 2651 2914 
Q 2772 3150 2772 3378 
Q 2772 3750 2511 3984 
Q 2250 4219 1831 4219 
Q 1534 4219 1204 4116 
Q 875 4013 500 3803 
L 500 4441 
Q 881 4594 1212 4672 
Q 1544 4750 1819 4750 
Q 2544 4750 2975 4387 
Q 3406 4025 3406 3419 
Q 3406 3131 3298 2873 
Q 3191 2616 2906 2266 
Q 2828 2175 2409 1742 
Q 1991 1309 1228 531 
z
" transform="scale(0.015625)"/>
        <path id="DejaVuSans-30" d="M 2034 4250 
Q 1547 4250 1301 3770 
Q 1056 3291 1056 2328 
Q 1056 1369 1301 889 
Q 1547 409 2034 409 
Q 2525 409 2770 889 
Q 3016 1369 3016 2328 
Q 3016 3291 2770 3770 
Q 2525 4250 2034 4250 
z
M 2034 4750 
Q 2819 4750 3233 4129 
Q 3647 3509 3647 2328 
Q 3647 1150 3233 529 
Q 2819 -91 2034 -91 
Q 1250 -91 836 529 
Q 422 1150 422 2328 
Q 422 3509 836 4129 
Q 1250 4750 2034 4750 
z
" transform="scale(0.015625)"/>
        <path id="DejaVuSans-36" d="M 2113 2584 
Q 1688 2584 1439 2293 
Q 1191 2003 1191 1497 
Q 1191 994 1439 701 
Q 1688 409 2113 409 
Q 2538 409 2786 701 
Q 3034 994 3034 1497 
Q 3034 2003 2786 2293 
Q 2538 2584 2113 2584 
z
M 3366 4563 
L 3366 3988 
Q 3128 4100 2886 4159 
Q 2644 4219 2406 4219 
Q 1781 4219 1451 3797 
Q 1122 3375 1075 2522 
Q 1259 2794 1537 2939 
Q 1816 3084 2150 3084 
Q 2853 3084 3261 2657 
Q 3669 2231 3669 1497 
Q 3669 778 3244 343 
Q 2819 -91 2113 -91 
Q 1303 -91 875 529 
Q 447 1150 447 2328 
Q 447 3434 972 4092 
Q 1497 4750 2381 4750 
Q 2619 4750 2861 4703 
Q 3103 4656 3366 4563 
z
" transform="scale(0.015625)"/>
       </defs>
       <use xlink:href="#DejaVuSans-32"/>
       <use xlink:href="#DejaVuSans-30" x="63.623047"/>
       <use xlink:href="#DejaVuSans-30" x="127.246094"/>
       <use xlink:href="#DejaVuSans-36" x="190.869141"/>
      </g>
     </g>
    </g>
    <g id="xtick_2">
     <g id="line2d_2">
      <g>
       <use xlink:href="#m3688b5dd7b" x="114.413947" y="518.74" style="stroke: #000000; stroke-width: 0.8"/>
      </g>
     </g>
     <g id="text_2">
      <!-- 2007 -->
      <g transform="translate(117.173322 551.19) rotate(-90) scale(0.1 -0.1)">
       <defs>
        <path id="DejaVuSans-37" d="M 525 4666 
L 3525 4666 
L 3525 4397 
L 1831 0 
L 1172 0 
L 2766 4134 
L 525 4134 
L 525 4666 
z
" transform="scale(0.015625)"/>
       </defs>
       <use xlink:href="#DejaVuSans-32"/>
       <use xlink:href="#DejaVuSans-30" x="63.623047"/>
       <use xlink:href="#DejaVuSans-30" x="127.246094"/>
       <use xlink:href="#DejaVuSans-37" x="190.869141"/>
      </g>
     </g>
    </g>
    <g id="xtick_3">
     <g id="line2d_3">
      <g>
       <use xlink:href="#m3688b5dd7b" x="156.776579" y="518.74" style="stroke: #000000; stroke-width: 0.8"/>
      </g>
     </g>
     <g id="text_3">
      <!-- 2008 -->
      <g transform="translate(159.535954 551.19) rotate(-90) scale(0.1 -0.1)">
       <defs>
        <path id="DejaVuSans-38" d="M 2034 2216 
Q 1584 2216 1326 1975 
Q 1069 1734 1069 1313 
Q 1069 891 1326 650 
Q 1584 409 2034 409 
Q 2484 409 2743 651 
Q 3003 894 3003 1313 
Q 3003 1734 2745 1975 
Q 2488 2216 2034 2216 
z
M 1403 2484 
Q 997 2584 770 2862 
Q 544 3141 544 3541 
Q 544 4100 942 4425 
Q 1341 4750 2034 4750 
Q 2731 4750 3128 4425 
Q 3525 4100 3525 3541 
Q 3525 3141 3298 2862 
Q 3072 2584 2669 2484 
Q 3125 2378 3379 2068 
Q 3634 1759 3634 1313 
Q 3634 634 3220 271 
Q 2806 -91 2034 -91 
Q 1263 -91 848 271 
Q 434 634 434 1313 
Q 434 1759 690 2068 
Q 947 2378 1403 2484 
z
M 1172 3481 
Q 1172 3119 1398 2916 
Q 1625 2713 2034 2713 
Q 2441 2713 2670 2916 
Q 2900 3119 2900 3481 
Q 2900 3844 2670 4047 
Q 2441 4250 2034 4250 
Q 1625 4250 1398 4047 
Q 1172 3844 1172 3481 
z
" transform="scale(0.015625)"/>
       </defs>
       <use xlink:href="#DejaVuSans-32"/>
       <use xlink:href="#DejaVuSans-30" x="63.623047"/>
       <use xlink:href="#DejaVuSans-30" x="127.246094"/>
       <use xlink:href="#DejaVuSans-38" x="190.869141"/>
      </g>
     </g>
    </g>
    <g id="xtick_4">
     <g id="line2d_4">
      <g>
       <use xlink:href="#m3688b5dd7b" x="199.139211" y="518.74" style="stroke: #000000; stroke-width: 0.8"/>
      </g>
     </g>
     <g id="text_4">
      <!-- 2009 -->
      <g transform="translate(201.898586 551.19) rotate(-90) scale(0.1 -0.1)">
       <defs>
        <path id="DejaVuSans-39" d="M 703 97 
L 703 672 
Q 941 559 1184 500 
Q 1428 441 1663 441 
Q 2288 441 2617 861 
Q 2947 1281 2994 2138 
Q 2813 1869 2534 1725 
Q 2256 1581 1919 1581 
Q 1219 1581 811 2004 
Q 403 2428 403 3163 
Q 403 3881 828 4315 
Q 1253 4750 1959 4750 
Q 2769 4750 3195 4129 
Q 3622 3509 3622 2328 
Q 3622 1225 3098 567 
Q 2575 -91 1691 -91 
Q 1453 -91 1209 -44 
Q 966 3 703 97 
z
M 1959 2075 
Q 2384 2075 2632 2365 
Q 2881 2656 2881 3163 
Q 2881 3666 2632 3958 
Q 2384 4250 1959 4250 
Q 1534 4250 1286 3958 
Q 1038 3666 1038 3163 
Q 1038 2656 1286 2365 
Q 1534 2075 1959 2075 
z
" transform="scale(0.015625)"/>
       </defs>
       <use xlink:href="#DejaVuSans-32"/>
       <use xlink:href="#DejaVuSans-30" x="63.623047"/>
       <use xlink:href="#DejaVuSans-30" x="127.246094"/>
       <use xlink:href="#DejaVuSans-39" x="190.869141"/>
      </g>
     </g>
    </g>
    <g id="xtick_5">
     <g id="line2d_5">
      <g>
       <use xlink:href="#m3688b5dd7b" x="241.501842" y="518.74" style="stroke: #000000; stroke-width: 0.8"/>
      </g>
     </g>
     <g id="text_5">
      <!-- 2010 -->
      <g transform="translate(244.261217 551.19) rotate(-90) scale(0.1 -0.1)">
       <defs>
        <path id="DejaVuSans-31" d="M 794 531 
L 1825 531 
L 1825 4091 
L 703 3866 
L 703 4441 
L 1819 4666 
L 2450 4666 
L 2450 531 
L 3481 531 
L 3481 0 
L 794 0 
L 794 531 
z
" transform="scale(0.015625)"/>
       </defs>
       <use xlink:href="#DejaVuSans-32"/>
       <use xlink:href="#DejaVuSans-30" x="63.623047"/>
       <use xlink:href="#DejaVuSans-31" x="127.246094"/>
       <use xlink:href="#DejaVuSans-30" x="190.869141"/>
      </g>
     </g>
    </g>
    <g id="xtick_6">
     <g id="line2d_6">
      <g>
       <use xlink:href="#m3688b5dd7b" x="283.864474" y="518.74" style="stroke: #000000; stroke-width: 0.8"/>
      </g>
     </g>
     <g id="text_6">
      <!-- 2011 -->
      <g transform="translate(286.623849 551.19) rotate(-90) scale(0.1 -0.1)">
       <use xlink:href="#DejaVuSans-32"/>
       <use xlink:href="#DejaVuSans-30" x="63.623047"/>
       <use xlink:href="#DejaVuSans-31" x="127.246094"/>
       <use xlink:href="#DejaVuSans-31" x="190.869141"/>
      </g>
     </g>
    </g>
    <g id="xtick_7">
     <g id="line2d_7">
      <g>
       <use xlink:href="#m3688b5dd7b" x="326.227105" y="518.74" style="stroke: #000000; stroke-width: 0.8"/>
      </g>
     </g>
     <g id="text_7">
      <!-- 2012 -->
      <g transform="translate(328.98648 551.19) rotate(-90) scale(0.1 -0.1)">
       <use xlink:href="#DejaVuSans-32"/>
       <use xlink:href="#DejaVuSans-30" x="63.623047"/>
       <use xlink:href="#DejaVuSans-31" x="127.246094"/>
       <use xlink:href="#DejaVuSans-32" x="190.869141"/>
      </g>
     </g>
    </g>
    <g id="xtick_8">
     <g id="line2d_8">
      <g>
       <use xlink:href="#m3688b5dd7b" x="368.589737" y="518.74" style="stroke: #000000; stroke-width: 0.8"/>
      </g>
     </g>
     <g id="text_8">
      <!-- 2013 -->
      <g transform="translate(371.349112 551.19) rotate(-90) scale(0.1 -0.1)">
       <defs>
        <path id="DejaVuSans-33" d="M 2597 2516 
Q 3050 2419 3304 2112 
Q 3559 1806 3559 1356 
Q 3559 666 3084 287 
Q 2609 -91 1734 -91 
Q 1441 -91 1130 -33 
Q 819 25 488 141 
L 488 750 
Q 750 597 1062 519 
Q 1375 441 1716 441 
Q 2309 441 2620 675 
Q 2931 909 2931 1356 
Q 2931 1769 2642 2001 
Q 2353 2234 1838 2234 
L 1294 2234 
L 1294 2753 
L 1863 2753 
Q 2328 2753 2575 2939 
Q 2822 3125 2822 3475 
Q 2822 3834 2567 4026 
Q 2313 4219 1838 4219 
Q 1578 4219 1281 4162 
Q 984 4106 628 3988 
L 628 4550 
Q 988 4650 1302 4700 
Q 1616 4750 1894 4750 
Q 2613 4750 3031 4423 
Q 3450 4097 3450 3541 
Q 3450 3153 3228 2886 
Q 3006 2619 2597 2516 
z
" transform="scale(0.015625)"/>
       </defs>
       <use xlink:href="#DejaVuSans-32"/>
       <use xlink:href="#DejaVuSans-30" x="63.623047"/>
       <use xlink:href="#DejaVuSans-31" x="127.246094"/>
       <use xlink:href="#DejaVuSans-33" x="190.869141"/>
      </g>
     </g>
    </g>
    <g id="xtick_9">
     <g id="line2d_9">
      <g>
       <use xlink:href="#m3688b5dd7b" x="410.952368" y="518.74" style="stroke: #000000; stroke-width: 0.8"/>
      </g>
     </g>
     <g id="text_9">
      <!-- 2014 -->
      <g transform="translate(413.711743 551.19) rotate(-90) scale(0.1 -0.1)">
       <defs>
        <path id="DejaVuSans-34" d="M 2419 4116 
L 825 1625 
L 2419 1625 
L 2419 4116 
z
M 2253 4666 
L 3047 4666 
L 3047 1625 
L 3713 1625 
L 3713 1100 
L 3047 1100 
L 3047 0 
L 2419 0 
L 2419 1100 
L 313 1100 
L 313 1709 
L 2253 4666 
z
" transform="scale(0.015625)"/>
       </defs>
       <use xlink:href="#DejaVuSans-32"/>
       <use xlink:href="#DejaVuSans-30" x="63.623047"/>
       <use xlink:href="#DejaVuSans-31" x="127.246094"/>
       <use xlink:href="#DejaVuSans-34" x="190.869141"/>
      </g>
     </g>
    </g>
    <g id="xtick_10">
     <g id="line2d_10">
      <g>
       <use xlink:href="#m3688b5dd7b" x="453.315" y="518.74" style="stroke: #000000; stroke-width: 0.8"/>
      </g>
     </g>
     <g id="text_10">
      <!-- 2015 -->
      <g transform="translate(456.074375 551.19) rotate(-90) scale(0.1 -0.1)">
       <defs>
        <path id="DejaVuSans-35" d="M 691 4666 
L 3169 4666 
L 3169 4134 
L 1269 4134 
L 1269 2991 
Q 1406 3038 1543 3061 
Q 1681 3084 1819 3084 
Q 2600 3084 3056 2656 
Q 3513 2228 3513 1497 
Q 3513 744 3044 326 
Q 2575 -91 1722 -91 
Q 1428 -91 1123 -41 
Q 819 9 494 109 
L 494 744 
Q 775 591 1075 516 
Q 1375 441 1709 441 
Q 2250 441 2565 725 
Q 2881 1009 2881 1497 
Q 2881 1984 2565 2268 
Q 2250 2553 1709 2553 
Q 1456 2553 1204 2497 
Q 953 2441 691 2322 
L 691 4666 
z
" transform="scale(0.015625)"/>
       </defs>
       <use xlink:href="#DejaVuSans-32"/>
       <use xlink:href="#DejaVuSans-30" x="63.623047"/>
       <use xlink:href="#DejaVuSans-31" x="127.246094"/>
       <use xlink:href="#DejaVuSans-35" x="190.869141"/>
      </g>
     </g>
    </g>
    <g id="xtick_11">
     <g id="line2d_11">
      <g>
       <use xlink:href="#m3688b5dd7b" x="495.677632" y="518.74" style="stroke: #000000; stroke-width: 0.8"/>
      </g>
     </g>
     <g id="text_11">
      <!-- 2016 -->
      <g transform="translate(498.437007 551.19) rotate(-90) scale(0.1 -0.1)">
       <use xlink:href="#DejaVuSans-32"/>
       <use xlink:href="#DejaVuSans-30" x="63.623047"/>
       <use xlink:href="#DejaVuSans-31" x="127.246094"/>
       <use xlink:href="#DejaVuSans-36" x="190.869141"/>
      </g>
     </g>
    </g>
    <g id="xtick_12">
     <g id="line2d_12">
      <g>
       <use xlink:href="#m3688b5dd7b" x="538.040263" y="518.74" style="stroke: #000000; stroke-width: 0.8"/>
      </g>
     </g>
     <g id="text_12">
      <!-- 2017 -->
      <g transform="translate(540.799638 551.19) rotate(-90) scale(0.1 -0.1)">
       <use xlink:href="#DejaVuSans-32"/>
       <use xlink:href="#DejaVuSans-30" x="63.623047"/>
       <use xlink:href="#DejaVuSans-31" x="127.246094"/>
       <use xlink:href="#DejaVuSans-37" x="190.869141"/>
      </g>
     </g>
    </g>
    <g id="xtick_13">
     <g id="line2d_13">
      <g>
       <use xlink:href="#m3688b5dd7b" x="580.402895" y="518.74" style="stroke: #000000; stroke-width: 0.8"/>
      </g>
     </g>
     <g id="text_13">
      <!-- 2018 -->
      <g transform="translate(583.16227 551.19) rotate(-90) scale(0.1 -0.1)">
       <use xlink:href="#DejaVuSans-32"/>
       <use xlink:href="#DejaVuSans-30" x="63.623047"/>
       <use xlink:href="#DejaVuSans-31" x="127.246094"/>
       <use xlink:href="#DejaVuSans-38" x="190.869141"/>
      </g>
     </g>
    </g>
    <g id="xtick_14">
     <g id="line2d_14">
      <g>
       <use xlink:href="#m3688b5dd7b" x="622.765526" y="518.74" style="stroke: #000000; stroke-width: 0.8"/>
      </g>
     </g>
     <g id="text_14">
      <!-- 2019 -->
      <g transform="translate(625.524901 551.19) rotate(-90) scale(0.1 -0.1)">
       <use xlink:href="#DejaVuSans-32"/>
       <use xlink:href="#DejaVuSans-30" x="63.623047"/>
       <use xlink:href="#DejaVuSans-31" x="127.246094"/>
       <use xlink:href="#DejaVuSans-39" x="190.869141"/>
      </g>
     </g>
    </g>
    <g id="xtick_15">
     <g id="line2d_15">
      <g>
       <use xlink:href="#m3688b5dd7b" x="665.128158" y="518.74" style="stroke: #000000; stroke-width: 0.8"/>
      </g>
     </g>
     <g id="text_15">
      <!-- 2020 -->
      <g transform="translate(667.887533 551.19) rotate(-90) scale(0.1 -0.1)">
       <use xlink:href="#DejaVuSans-32"/>
       <use xlink:href="#DejaVuSans-30" x="63.623047"/>
       <use xlink:href="#DejaVuSans-32" x="127.246094"/>
       <use xlink:href="#DejaVuSans-30" x="190.869141"/>
      </g>
     </g>
    </g>
    <g id="xtick_16">
     <g id="line2d_16">
      <g>
       <use xlink:href="#m3688b5dd7b" x="707.490789" y="518.74" style="stroke: #000000; stroke-width: 0.8"/>
      </g>
     </g>
     <g id="text_16">
      <!-- 2021 -->
      <g transform="translate(710.250164 551.19) rotate(-90) scale(0.1 -0.1)">
       <use xlink:href="#DejaVuSans-32"/>
       <use xlink:href="#DejaVuSans-30" x="63.623047"/>
       <use xlink:href="#DejaVuSans-32" x="127.246094"/>
       <use xlink:href="#DejaVuSans-31" x="190.869141"/>
      </g>
     </g>
    </g>
    <g id="xtick_17">
     <g id="line2d_17">
      <g>
       <use xlink:href="#m3688b5dd7b" x="749.853421" y="518.74" style="stroke: #000000; stroke-width: 0.8"/>
      </g>
     </g>
     <g id="text_17">
      <!-- 2022 -->
      <g transform="translate(752.612796 551.19) rotate(-90) scale(0.1 -0.1)">
       <use xlink:href="#DejaVuSans-32"/>
       <use xlink:href="#DejaVuSans-30" x="63.623047"/>
       <use xlink:href="#DejaVuSans-32" x="127.246094"/>
       <use xlink:href="#DejaVuSans-32" x="190.869141"/>
      </g>
     </g>
    </g>
    <g id="xtick_18">
     <g id="line2d_18">
      <g>
       <use xlink:href="#m3688b5dd7b" x="792.216053" y="518.74" style="stroke: #000000; stroke-width: 0.8"/>
      </g>
     </g>
     <g id="text_18">
      <!-- 2023 -->
      <g transform="translate(794.975428 551.19) rotate(-90) scale(0.1 -0.1)">
       <use xlink:href="#DejaVuSans-32"/>
       <use xlink:href="#DejaVuSans-30" x="63.623047"/>
       <use xlink:href="#DejaVuSans-32" x="127.246094"/>
       <use xlink:href="#DejaVuSans-33" x="190.869141"/>
      </g>
     </g>
    </g>
    <g id="xtick_19">
     <g id="line2d_19">
      <g>
       <use xlink:href="#m3688b5dd7b" x="834.578684" y="518.74" style="stroke: #000000; stroke-width: 0.8"/>
      </g>
     </g>
     <g id="text_19">
      <!-- 2024 -->
      <g transform="translate(837.338059 551.19) rotate(-90) scale(0.1 -0.1)">
       <use xlink:href="#DejaVuSans-32"/>
       <use xlink:href="#DejaVuSans-30" x="63.623047"/>
       <use xlink:href="#DejaVuSans-32" x="127.246094"/>
       <use xlink:href="#DejaVuSans-34" x="190.869141"/>
      </g>
     </g>
    </g>
    <g id="text_20">
     <!-- Jahr -->
     <g transform="translate(443.551719 562.788437) scale(0.1 -0.1)">
      <defs>
       <path id="DejaVuSans-4a" d="M 628 4666 
L 1259 4666 
L 1259 325 
Q 1259 -519 939 -900 
Q 619 -1281 -91 -1281 
L -331 -1281 
L -331 -750 
L -134 -750 
Q 284 -750 456 -515 
Q 628 -281 628 325 
L 628 4666 
z
" transform="scale(0.015625)"/>
       <path id="DejaVuSans-61" d="M 2194 1759 
Q 1497 1759 1228 1600 
Q 959 1441 959 1056 
Q 959 750 1161 570 
Q 1363 391 1709 391 
Q 2188 391 2477 730 
Q 2766 1069 2766 1631 
L 2766 1759 
L 2194 1759 
z
M 3341 1997 
L 3341 0 
L 2766 0 
L 2766 531 
Q 2569 213 2275 61 
Q 1981 -91 1556 -91 
Q 1019 -91 701 211 
Q 384 513 384 1019 
Q 384 1609 779 1909 
Q 1175 2209 1959 2209 
L 2766 2209 
L 2766 2266 
Q 2766 2663 2505 2880 
Q 2244 3097 1772 3097 
Q 1472 3097 1187 3025 
Q 903 2953 641 2809 
L 641 3341 
Q 956 3463 1253 3523 
Q 1550 3584 1831 3584 
Q 2591 3584 2966 3190 
Q 3341 2797 3341 1997 
z
" transform="scale(0.015625)"/>
       <path id="DejaVuSans-68" d="M 3513 2113 
L 3513 0 
L 2938 0 
L 2938 2094 
Q 2938 2591 2744 2837 
Q 2550 3084 2163 3084 
Q 1697 3084 1428 2787 
Q 1159 2491 1159 1978 
L 1159 0 
L 581 0 
L 581 4863 
L 1159 4863 
L 1159 2956 
Q 1366 3272 1645 3428 
Q 1925 3584 2291 3584 
Q 2894 3584 3203 3211 
Q 3513 2838 3513 2113 
z
" transform="scale(0.015625)"/>
       <path id="DejaVuSans-72" d="M 2631 2963 
Q 2534 3019 2420 3045 
Q 2306 3072 2169 3072 
Q 1681 3072 1420 2755 
Q 1159 2438 1159 1844 
L 1159 0 
L 581 0 
L 581 3500 
L 1159 3500 
L 1159 2956 
Q 1341 3275 1631 3429 
Q 1922 3584 2338 3584 
Q 2397 3584 2469 3576 
Q 2541 3569 2628 3553 
L 2631 2963 
z
" transform="scale(0.015625)"/>
      </defs>
      <use xlink:href="#DejaVuSans-4a"/>
      <use xlink:href="#DejaVuSans-61" x="29.492188"/>
      <use xlink:href="#DejaVuSans-68" x="90.771484"/>
      <use xlink:href="#DejaVuSans-72" x="154.150391"/>
     </g>
    </g>
   </g>
   <g id="matplotlib.axis_2">
    <g id="ytick_1">
     <g id="line2d_20">
      <defs>
       <path id="m810ac94cf8" d="M 0 0 
L -3.5 0 
" style="stroke: #000000; stroke-width: 0.8"/>
      </defs>
      <g>
       <use xlink:href="#m810ac94cf8" x="50.87" y="518.74" style="stroke: #000000; stroke-width: 0.8"/>
      </g>
     </g>
     <g id="text_21">
      <!-- 0 -->
      <g transform="translate(37.5075 522.539219) scale(0.1 -0.1)">
       <use xlink:href="#DejaVuSans-30"/>
      </g>
     </g>
    </g>
    <g id="ytick_2">
     <g id="line2d_21">
      <g>
       <use xlink:href="#m810ac94cf8" x="50.87" y="458.683834" style="stroke: #000000; stroke-width: 0.8"/>
      </g>
     </g>
     <g id="text_22">
      <!-- 25 -->
      <g transform="translate(31.145 462.483053) scale(0.1 -0.1)">
       <use xlink:href="#DejaVuSans-32"/>
       <use xlink:href="#DejaVuSans-35" x="63.623047"/>
      </g>
     </g>
    </g>
    <g id="ytick_3">
     <g id="line2d_22">
      <g>
       <use xlink:href="#m810ac94cf8" x="50.87" y="398.627668" style="stroke: #000000; stroke-width: 0.8"/>
      </g>
     </g>
     <g id="text_23">
      <!-- 50 -->
      <g transform="translate(31.145 402.426887) scale(0.1 -0.1)">
       <use xlink:href="#DejaVuSans-35"/>
       <use xlink:href="#DejaVuSans-30" x="63.623047"/>
      </g>
     </g>
    </g>
    <g id="ytick_4">
     <g id="line2d_23">
      <g>
       <use xlink:href="#m810ac94cf8" x="50.87" y="338.571502" style="stroke: #000000; stroke-width: 0.8"/>
      </g>
     </g>
     <g id="text_24">
      <!-- 75 -->
      <g transform="translate(31.145 342.370721) scale(0.1 -0.1)">
       <use xlink:href="#DejaVuSans-37"/>
       <use xlink:href="#DejaVuSans-35" x="63.623047"/>
      </g>
     </g>
    </g>
    <g id="ytick_5">
     <g id="line2d_24">
      <g>
       <use xlink:href="#m810ac94cf8" x="50.87" y="278.515336" style="stroke: #000000; stroke-width: 0.8"/>
      </g>
     </g>
     <g id="text_25">
      <!-- 100 -->
      <g transform="translate(24.7825 282.314555) scale(0.1 -0.1)">
       <use xlink:href="#DejaVuSans-31"/>
       <use xlink:href="#DejaVuSans-30" x="63.623047"/>
       <use xlink:href="#DejaVuSans-30" x="127.246094"/>
      </g>
     </g>
    </g>
    <g id="ytick_6">
     <g id="line2d_25">
      <g>
       <use xlink:href="#m810ac94cf8" x="50.87" y="218.45917" style="stroke: #000000; stroke-width: 0.8"/>
      </g>
     </g>
     <g id="text_26">
      <!-- 125 -->
      <g transform="translate(24.7825 222.258388) scale(0.1 -0.1)">
       <use xlink:href="#DejaVuSans-31"/>
       <use xlink:href="#DejaVuSans-32" x="63.623047"/>
       <use xlink:href="#DejaVuSans-35" x="127.246094"/>
      </g>
     </g>
    </g>
    <g id="ytick_7">
     <g id="line2d_26">
      <g>
       <use xlink:href="#m810ac94cf8" x="50.87" y="158.403004" style="stroke: #000000; stroke-width: 0.8"/>
      </g>
     </g>
     <g id="text_27">
      <!-- 150 -->
      <g transform="translate(24.7825 162.202222) scale(0.1 -0.1)">
       <use xlink:href="#DejaVuSans-31"/>
       <use xlink:href="#DejaVuSans-35" x="63.623047"/>
       <use xlink:href="#DejaVuSans-30" x="127.246094"/>
      </g>
     </g>
    </g>
    <g id="ytick_8">
     <g id="line2d_27">
      <g>
       <use xlink:href="#m810ac94cf8" x="50.87" y="98.346838" style="stroke: #000000; stroke-width: 0.8"/>
      </g>
     </g>
     <g id="text_28">
      <!-- 175 -->
      <g transform="translate(24.7825 102.146056) scale(0.1 -0.1)">
       <use xlink:href="#DejaVuSans-31"/>
       <use xlink:href="#DejaVuSans-37" x="63.623047"/>
       <use xlink:href="#DejaVuSans-35" x="127.246094"/>
      </g>
     </g>
    </g>
    <g id="ytick_9">
     <g id="line2d_28">
      <g>
       <use xlink:href="#m810ac94cf8" x="50.87" y="38.290672" style="stroke: #000000; stroke-width: 0.8"/>
      </g>
     </g>
     <g id="text_29">
      <!-- 200 -->
      <g transform="translate(24.7825 42.08989) scale(0.1 -0.1)">
       <use xlink:href="#DejaVuSans-32"/>
       <use xlink:href="#DejaVuSans-30" x="63.623047"/>
       <use xlink:href="#DejaVuSans-30" x="127.246094"/>
      </g>
     </g>
    </g>
    <g id="text_30">
     <!-- Anzahl der Emotionen -->
     <g transform="translate(18.702812 328.04125) rotate(-90) scale(0.1 -0.1)">
      <defs>
       <path id="DejaVuSans-41" d="M 2188 4044 
L 1331 1722 
L 3047 1722 
L 2188 4044 
z
M 1831 4666 
L 2547 4666 
L 4325 0 
L 3669 0 
L 3244 1197 
L 1141 1197 
L 716 0 
L 50 0 
L 1831 4666 
z
" transform="scale(0.015625)"/>
       <path id="DejaVuSans-6e" d="M 3513 2113 
L 3513 0 
L 2938 0 
L 2938 2094 
Q 2938 2591 2744 2837 
Q 2550 3084 2163 3084 
Q 1697 3084 1428 2787 
Q 1159 2491 1159 1978 
L 1159 0 
L 581 0 
L 581 3500 
L 1159 3500 
L 1159 2956 
Q 1366 3272 1645 3428 
Q 1925 3584 2291 3584 
Q 2894 3584 3203 3211 
Q 3513 2838 3513 2113 
z
" transform="scale(0.015625)"/>
       <path id="DejaVuSans-7a" d="M 353 3500 
L 3084 3500 
L 3084 2975 
L 922 459 
L 3084 459 
L 3084 0 
L 275 0 
L 275 525 
L 2438 3041 
L 353 3041 
L 353 3500 
z
" transform="scale(0.015625)"/>
       <path id="DejaVuSans-6c" d="M 603 4863 
L 1178 4863 
L 1178 0 
L 603 0 
L 603 4863 
z
" transform="scale(0.015625)"/>
       <path id="DejaVuSans-20" transform="scale(0.015625)"/>
       <path id="DejaVuSans-64" d="M 2906 2969 
L 2906 4863 
L 3481 4863 
L 3481 0 
L 2906 0 
L 2906 525 
Q 2725 213 2448 61 
Q 2172 -91 1784 -91 
Q 1150 -91 751 415 
Q 353 922 353 1747 
Q 353 2572 751 3078 
Q 1150 3584 1784 3584 
Q 2172 3584 2448 3432 
Q 2725 3281 2906 2969 
z
M 947 1747 
Q 947 1113 1208 752 
Q 1469 391 1925 391 
Q 2381 391 2643 752 
Q 2906 1113 2906 1747 
Q 2906 2381 2643 2742 
Q 2381 3103 1925 3103 
Q 1469 3103 1208 2742 
Q 947 2381 947 1747 
z
" transform="scale(0.015625)"/>
       <path id="DejaVuSans-65" d="M 3597 1894 
L 3597 1613 
L 953 1613 
Q 991 1019 1311 708 
Q 1631 397 2203 397 
Q 2534 397 2845 478 
Q 3156 559 3463 722 
L 3463 178 
Q 3153 47 2828 -22 
Q 2503 -91 2169 -91 
Q 1331 -91 842 396 
Q 353 884 353 1716 
Q 353 2575 817 3079 
Q 1281 3584 2069 3584 
Q 2775 3584 3186 3129 
Q 3597 2675 3597 1894 
z
M 3022 2063 
Q 3016 2534 2758 2815 
Q 2500 3097 2075 3097 
Q 1594 3097 1305 2825 
Q 1016 2553 972 2059 
L 3022 2063 
z
" transform="scale(0.015625)"/>
       <path id="DejaVuSans-45" d="M 628 4666 
L 3578 4666 
L 3578 4134 
L 1259 4134 
L 1259 2753 
L 3481 2753 
L 3481 2222 
L 1259 2222 
L 1259 531 
L 3634 531 
L 3634 0 
L 628 0 
L 628 4666 
z
" transform="scale(0.015625)"/>
       <path id="DejaVuSans-6d" d="M 3328 2828 
Q 3544 3216 3844 3400 
Q 4144 3584 4550 3584 
Q 5097 3584 5394 3201 
Q 5691 2819 5691 2113 
L 5691 0 
L 5113 0 
L 5113 2094 
Q 5113 2597 4934 2840 
Q 4756 3084 4391 3084 
Q 3944 3084 3684 2787 
Q 3425 2491 3425 1978 
L 3425 0 
L 2847 0 
L 2847 2094 
Q 2847 2600 2669 2842 
Q 2491 3084 2119 3084 
Q 1678 3084 1418 2786 
Q 1159 2488 1159 1978 
L 1159 0 
L 581 0 
L 581 3500 
L 1159 3500 
L 1159 2956 
Q 1356 3278 1631 3431 
Q 1906 3584 2284 3584 
Q 2666 3584 2933 3390 
Q 3200 3197 3328 2828 
z
" transform="scale(0.015625)"/>
       <path id="DejaVuSans-6f" d="M 1959 3097 
Q 1497 3097 1228 2736 
Q 959 2375 959 1747 
Q 959 1119 1226 758 
Q 1494 397 1959 397 
Q 2419 397 2687 759 
Q 2956 1122 2956 1747 
Q 2956 2369 2687 2733 
Q 2419 3097 1959 3097 
z
M 1959 3584 
Q 2709 3584 3137 3096 
Q 3566 2609 3566 1747 
Q 3566 888 3137 398 
Q 2709 -91 1959 -91 
Q 1206 -91 779 398 
Q 353 888 353 1747 
Q 353 2609 779 3096 
Q 1206 3584 1959 3584 
z
" transform="scale(0.015625)"/>
       <path id="DejaVuSans-74" d="M 1172 4494 
L 1172 3500 
L 2356 3500 
L 2356 3053 
L 1172 3053 
L 1172 1153 
Q 1172 725 1289 603 
Q 1406 481 1766 481 
L 2356 481 
L 2356 0 
L 1766 0 
Q 1100 0 847 248 
Q 594 497 594 1153 
L 594 3053 
L 172 3053 
L 172 3500 
L 594 3500 
L 594 4494 
L 1172 4494 
z
" transform="scale(0.015625)"/>
       <path id="DejaVuSans-69" d="M 603 3500 
L 1178 3500 
L 1178 0 
L 603 0 
L 603 3500 
z
M 603 4863 
L 1178 4863 
L 1178 4134 
L 603 4134 
L 603 4863 
z
" transform="scale(0.015625)"/>
      </defs>
      <use xlink:href="#DejaVuSans-41"/>
      <use xlink:href="#DejaVuSans-6e" x="68.408203"/>
      <use xlink:href="#DejaVuSans-7a" x="131.787109"/>
      <use xlink:href="#DejaVuSans-61" x="184.277344"/>
      <use xlink:href="#DejaVuSans-68" x="245.556641"/>
      <use xlink:href="#DejaVuSans-6c" x="308.935547"/>
      <use xlink:href="#DejaVuSans-20" x="336.71875"/>
      <use xlink:href="#DejaVuSans-64" x="368.505859"/>
      <use xlink:href="#DejaVuSans-65" x="431.982422"/>
      <use xlink:href="#DejaVuSans-72" x="493.505859"/>
      <use xlink:href="#DejaVuSans-20" x="534.619141"/>
      <use xlink:href="#DejaVuSans-45" x="566.40625"/>
      <use xlink:href="#DejaVuSans-6d" x="629.589844"/>
      <use xlink:href="#DejaVuSans-6f" x="727.001953"/>
      <use xlink:href="#DejaVuSans-74" x="788.183594"/>
      <use xlink:href="#DejaVuSans-69" x="827.392578"/>
      <use xlink:href="#DejaVuSans-6f" x="855.175781"/>
      <use xlink:href="#DejaVuSans-6e" x="916.357422"/>
      <use xlink:href="#DejaVuSans-65" x="979.736328"/>
      <use xlink:href="#DejaVuSans-6e" x="1041.259766"/>
     </g>
    </g>
   </g>
   <g id="patch_117">
    <path d="M 50.87 518.74 
L 50.87 26.88 
" style="fill: none; stroke: #000000; stroke-width: 0.8; stroke-linejoin: miter; stroke-linecap: square"/>
   </g>
   <g id="patch_118">
    <path d="M 855.76 518.74 
L 855.76 26.88 
" style="fill: none; stroke: #000000; stroke-width: 0.8; stroke-linejoin: miter; stroke-linecap: square"/>
   </g>
   <g id="patch_119">
    <path d="M 50.87 518.74 
L 855.76 518.74 
" style="fill: none; stroke: #000000; stroke-width: 0.8; stroke-linejoin: miter; stroke-linecap: square"/>
   </g>
   <g id="patch_120">
    <path d="M 50.87 26.88 
L 855.76 26.88 
" style="fill: none; stroke: #000000; stroke-width: 0.8; stroke-linejoin: miter; stroke-linecap: square"/>
   </g>
   <g id="text_31">
    <!-- Verteilung der Emotionen pro Jahr fr UBT-FWG-UBM -->
    <g transform="translate(295.441875 20.88) scale(0.12 -0.12)">
     <defs>
      <path id="DejaVuSans-56" d="M 1831 0 
L 50 4666 
L 709 4666 
L 2188 738 
L 3669 4666 
L 4325 4666 
L 2547 0 
L 1831 0 
z
" transform="scale(0.015625)"/>
      <path id="DejaVuSans-75" d="M 544 1381 
L 544 3500 
L 1119 3500 
L 1119 1403 
Q 1119 906 1312 657 
Q 1506 409 1894 409 
Q 2359 409 2629 706 
Q 2900 1003 2900 1516 
L 2900 3500 
L 3475 3500 
L 3475 0 
L 2900 0 
L 2900 538 
Q 2691 219 2414 64 
Q 2138 -91 1772 -91 
Q 1169 -91 856 284 
Q 544 659 544 1381 
z
M 1991 3584 
L 1991 3584 
z
" transform="scale(0.015625)"/>
      <path id="DejaVuSans-67" d="M 2906 1791 
Q 2906 2416 2648 2759 
Q 2391 3103 1925 3103 
Q 1463 3103 1205 2759 
Q 947 2416 947 1791 
Q 947 1169 1205 825 
Q 1463 481 1925 481 
Q 2391 481 2648 825 
Q 2906 1169 2906 1791 
z
M 3481 434 
Q 3481 -459 3084 -895 
Q 2688 -1331 1869 -1331 
Q 1566 -1331 1297 -1286 
Q 1028 -1241 775 -1147 
L 775 -588 
Q 1028 -725 1275 -790 
Q 1522 -856 1778 -856 
Q 2344 -856 2625 -561 
Q 2906 -266 2906 331 
L 2906 616 
Q 2728 306 2450 153 
Q 2172 0 1784 0 
Q 1141 0 747 490 
Q 353 981 353 1791 
Q 353 2603 747 3093 
Q 1141 3584 1784 3584 
Q 2172 3584 2450 3431 
Q 2728 3278 2906 2969 
L 2906 3500 
L 3481 3500 
L 3481 434 
z
" transform="scale(0.015625)"/>
      <path id="DejaVuSans-70" d="M 1159 525 
L 1159 -1331 
L 581 -1331 
L 581 3500 
L 1159 3500 
L 1159 2969 
Q 1341 3281 1617 3432 
Q 1894 3584 2278 3584 
Q 2916 3584 3314 3078 
Q 3713 2572 3713 1747 
Q 3713 922 3314 415 
Q 2916 -91 2278 -91 
Q 1894 -91 1617 61 
Q 1341 213 1159 525 
z
M 3116 1747 
Q 3116 2381 2855 2742 
Q 2594 3103 2138 3103 
Q 1681 3103 1420 2742 
Q 1159 2381 1159 1747 
Q 1159 1113 1420 752 
Q 1681 391 2138 391 
Q 2594 391 2855 752 
Q 3116 1113 3116 1747 
z
" transform="scale(0.015625)"/>
      <path id="DejaVuSans-66" d="M 2375 4863 
L 2375 4384 
L 1825 4384 
Q 1516 4384 1395 4259 
Q 1275 4134 1275 3809 
L 1275 3500 
L 2222 3500 
L 2222 3053 
L 1275 3053 
L 1275 0 
L 697 0 
L 697 3053 
L 147 3053 
L 147 3500 
L 697 3500 
L 697 3744 
Q 697 4328 969 4595 
Q 1241 4863 1831 4863 
L 2375 4863 
z
" transform="scale(0.015625)"/>
      <path id="DejaVuSans-fc" d="M 544 1381 
L 544 3500 
L 1119 3500 
L 1119 1403 
Q 1119 906 1312 657 
Q 1506 409 1894 409 
Q 2359 409 2629 706 
Q 2900 1003 2900 1516 
L 2900 3500 
L 3475 3500 
L 3475 0 
L 2900 0 
L 2900 538 
Q 2691 219 2414 64 
Q 2138 -91 1772 -91 
Q 1169 -91 856 284 
Q 544 659 544 1381 
z
M 1991 3584 
L 1991 3584 
z
M 2278 4850 
L 2912 4850 
L 2912 4219 
L 2278 4219 
L 2278 4850 
z
M 1056 4850 
L 1690 4850 
L 1690 4219 
L 1056 4219 
L 1056 4850 
z
" transform="scale(0.015625)"/>
      <path id="DejaVuSans-55" d="M 556 4666 
L 1191 4666 
L 1191 1831 
Q 1191 1081 1462 751 
Q 1734 422 2344 422 
Q 2950 422 3222 751 
Q 3494 1081 3494 1831 
L 3494 4666 
L 4128 4666 
L 4128 1753 
Q 4128 841 3676 375 
Q 3225 -91 2344 -91 
Q 1459 -91 1007 375 
Q 556 841 556 1753 
L 556 4666 
z
" transform="scale(0.015625)"/>
      <path id="DejaVuSans-42" d="M 1259 2228 
L 1259 519 
L 2272 519 
Q 2781 519 3026 730 
Q 3272 941 3272 1375 
Q 3272 1813 3026 2020 
Q 2781 2228 2272 2228 
L 1259 2228 
z
M 1259 4147 
L 1259 2741 
L 2194 2741 
Q 2656 2741 2882 2914 
Q 3109 3088 3109 3444 
Q 3109 3797 2882 3972 
Q 2656 4147 2194 4147 
L 1259 4147 
z
M 628 4666 
L 2241 4666 
Q 2963 4666 3353 4366 
Q 3744 4066 3744 3513 
Q 3744 3084 3544 2831 
Q 3344 2578 2956 2516 
Q 3422 2416 3680 2098 
Q 3938 1781 3938 1306 
Q 3938 681 3513 340 
Q 3088 0 2303 0 
L 628 0 
L 628 4666 
z
" transform="scale(0.015625)"/>
      <path id="DejaVuSans-54" d="M -19 4666 
L 3928 4666 
L 3928 4134 
L 2272 4134 
L 2272 0 
L 1638 0 
L 1638 4134 
L -19 4134 
L -19 4666 
z
" transform="scale(0.015625)"/>
      <path id="DejaVuSans-2d" d="M 313 2009 
L 1997 2009 
L 1997 1497 
L 313 1497 
L 313 2009 
z
" transform="scale(0.015625)"/>
      <path id="DejaVuSans-46" d="M 628 4666 
L 3309 4666 
L 3309 4134 
L 1259 4134 
L 1259 2759 
L 3109 2759 
L 3109 2228 
L 1259 2228 
L 1259 0 
L 628 0 
L 628 4666 
z
" transform="scale(0.015625)"/>
      <path id="DejaVuSans-57" d="M 213 4666 
L 850 4666 
L 1831 722 
L 2809 4666 
L 3519 4666 
L 4500 722 
L 5478 4666 
L 6119 4666 
L 4947 0 
L 4153 0 
L 3169 4050 
L 2175 0 
L 1381 0 
L 213 4666 
z
" transform="scale(0.015625)"/>
      <path id="DejaVuSans-47" d="M 3809 666 
L 3809 1919 
L 2778 1919 
L 2778 2438 
L 4434 2438 
L 4434 434 
Q 4069 175 3628 42 
Q 3188 -91 2688 -91 
Q 1594 -91 976 548 
Q 359 1188 359 2328 
Q 359 3472 976 4111 
Q 1594 4750 2688 4750 
Q 3144 4750 3555 4637 
Q 3966 4525 4313 4306 
L 4313 3634 
Q 3963 3931 3569 4081 
Q 3175 4231 2741 4231 
Q 1884 4231 1454 3753 
Q 1025 3275 1025 2328 
Q 1025 1384 1454 906 
Q 1884 428 2741 428 
Q 3075 428 3337 486 
Q 3600 544 3809 666 
z
" transform="scale(0.015625)"/>
      <path id="DejaVuSans-4d" d="M 628 4666 
L 1569 4666 
L 2759 1491 
L 3956 4666 
L 4897 4666 
L 4897 0 
L 4281 0 
L 4281 4097 
L 3078 897 
L 2444 897 
L 1241 4097 
L 1241 0 
L 628 0 
L 628 4666 
z
" transform="scale(0.015625)"/>
     </defs>
     <use xlink:href="#DejaVuSans-56"/>
     <use xlink:href="#DejaVuSans-65" x="60.658203"/>
     <use xlink:href="#DejaVuSans-72" x="122.181641"/>
     <use xlink:href="#DejaVuSans-74" x="163.294922"/>
     <use xlink:href="#DejaVuSans-65" x="202.503906"/>
     <use xlink:href="#DejaVuSans-69" x="264.027344"/>
     <use xlink:href="#DejaVuSans-6c" x="291.810547"/>
     <use xlink:href="#DejaVuSans-75" x="319.59375"/>
     <use xlink:href="#DejaVuSans-6e" x="382.972656"/>
     <use xlink:href="#DejaVuSans-67" x="446.351562"/>
     <use xlink:href="#DejaVuSans-20" x="509.828125"/>
     <use xlink:href="#DejaVuSans-64" x="541.615234"/>
     <use xlink:href="#DejaVuSans-65" x="605.091797"/>
     <use xlink:href="#DejaVuSans-72" x="666.615234"/>
     <use xlink:href="#DejaVuSans-20" x="707.728516"/>
     <use xlink:href="#DejaVuSans-45" x="739.515625"/>
     <use xlink:href="#DejaVuSans-6d" x="802.699219"/>
     <use xlink:href="#DejaVuSans-6f" x="900.111328"/>
     <use xlink:href="#DejaVuSans-74" x="961.292969"/>
     <use xlink:href="#DejaVuSans-69" x="1000.501953"/>
     <use xlink:href="#DejaVuSans-6f" x="1028.285156"/>
     <use xlink:href="#DejaVuSans-6e" x="1089.466797"/>
     <use xlink:href="#DejaVuSans-65" x="1152.845703"/>
     <use xlink:href="#DejaVuSans-6e" x="1214.369141"/>
     <use xlink:href="#DejaVuSans-20" x="1277.748047"/>
     <use xlink:href="#DejaVuSans-70" x="1309.535156"/>
     <use xlink:href="#DejaVuSans-72" x="1373.011719"/>
     <use xlink:href="#DejaVuSans-6f" x="1411.875"/>
     <use xlink:href="#DejaVuSans-20" x="1473.056641"/>
     <use xlink:href="#DejaVuSans-4a" x="1504.84375"/>
     <use xlink:href="#DejaVuSans-61" x="1534.335938"/>
     <use xlink:href="#DejaVuSans-68" x="1595.615234"/>
     <use xlink:href="#DejaVuSans-72" x="1658.994141"/>
     <use xlink:href="#DejaVuSans-20" x="1700.107422"/>
     <use xlink:href="#DejaVuSans-66" x="1731.894531"/>
     <use xlink:href="#DejaVuSans-fc" x="1767.099609"/>
     <use xlink:href="#DejaVuSans-72" x="1830.478516"/>
     <use xlink:href="#DejaVuSans-20" x="1871.591797"/>
     <use xlink:href="#DejaVuSans-55" x="1903.378906"/>
     <use xlink:href="#DejaVuSans-42" x="1976.572266"/>
     <use xlink:href="#DejaVuSans-54" x="2045.175781"/>
     <use xlink:href="#DejaVuSans-2d" x="2097.134766"/>
     <use xlink:href="#DejaVuSans-46" x="2133.21875"/>
     <use xlink:href="#DejaVuSans-57" x="2190.738281"/>
     <use xlink:href="#DejaVuSans-47" x="2289.615234"/>
     <use xlink:href="#DejaVuSans-2d" x="2367.105469"/>
     <use xlink:href="#DejaVuSans-55" x="2403.189453"/>
     <use xlink:href="#DejaVuSans-42" x="2476.382812"/>
     <use xlink:href="#DejaVuSans-4d" x="2544.986328"/>
    </g>
   </g>
   <g id="legend_1">
    <g id="patch_121">
     <path d="M 903.0045 137.626875 
L 996.513875 137.626875 
Q 998.513875 137.626875 998.513875 135.626875 
L 998.513875 33.88 
Q 998.513875 31.88 996.513875 31.88 
L 903.0045 31.88 
Q 901.0045 31.88 901.0045 33.88 
L 901.0045 135.626875 
Q 901.0045 137.626875 903.0045 137.626875 
z
" style="fill: #ffffff; opacity: 0.8; stroke: #cccccc; stroke-linejoin: miter"/>
    </g>
    <g id="text_32">
     <!-- Emotion -->
     <g transform="translate(929.092781 43.478438) scale(0.1 -0.1)">
      <use xlink:href="#DejaVuSans-45"/>
      <use xlink:href="#DejaVuSans-6d" x="63.183594"/>
      <use xlink:href="#DejaVuSans-6f" x="160.595703"/>
      <use xlink:href="#DejaVuSans-74" x="221.777344"/>
      <use xlink:href="#DejaVuSans-69" x="260.986328"/>
      <use xlink:href="#DejaVuSans-6f" x="288.769531"/>
      <use xlink:href="#DejaVuSans-6e" x="349.951172"/>
     </g>
    </g>
    <g id="patch_122">
     <path d="M 905.0045 58.156563 
L 925.0045 58.156563 
L 925.0045 51.156563 
L 905.0045 51.156563 
z
" style="fill: #2a9d8f"/>
    </g>
    <g id="text_33">
     <!-- Angst -->
     <g transform="translate(933.0045 58.156563) scale(0.1 -0.1)">
      <defs>
       <path id="DejaVuSans-73" d="M 2834 3397 
L 2834 2853 
Q 2591 2978 2328 3040 
Q 2066 3103 1784 3103 
Q 1356 3103 1142 2972 
Q 928 2841 928 2578 
Q 928 2378 1081 2264 
Q 1234 2150 1697 2047 
L 1894 2003 
Q 2506 1872 2764 1633 
Q 3022 1394 3022 966 
Q 3022 478 2636 193 
Q 2250 -91 1575 -91 
Q 1294 -91 989 -36 
Q 684 19 347 128 
L 347 722 
Q 666 556 975 473 
Q 1284 391 1588 391 
Q 1994 391 2212 530 
Q 2431 669 2431 922 
Q 2431 1156 2273 1281 
Q 2116 1406 1581 1522 
L 1381 1569 
Q 847 1681 609 1914 
Q 372 2147 372 2553 
Q 372 3047 722 3315 
Q 1072 3584 1716 3584 
Q 2034 3584 2315 3537 
Q 2597 3491 2834 3397 
z
" transform="scale(0.015625)"/>
      </defs>
      <use xlink:href="#DejaVuSans-41"/>
      <use xlink:href="#DejaVuSans-6e" x="68.408203"/>
      <use xlink:href="#DejaVuSans-67" x="131.787109"/>
      <use xlink:href="#DejaVuSans-73" x="195.263672"/>
      <use xlink:href="#DejaVuSans-74" x="247.363281"/>
     </g>
    </g>
    <g id="patch_123">
     <path d="M 905.0045 72.834688 
L 925.0045 72.834688 
L 925.0045 65.834688 
L 905.0045 65.834688 
z
" style="fill: #264653"/>
    </g>
    <g id="text_34">
     <!-- Ekel -->
     <g transform="translate(933.0045 72.834688) scale(0.1 -0.1)">
      <defs>
       <path id="DejaVuSans-6b" d="M 581 4863 
L 1159 4863 
L 1159 1991 
L 2875 3500 
L 3609 3500 
L 1753 1863 
L 3688 0 
L 2938 0 
L 1159 1709 
L 1159 0 
L 581 0 
L 581 4863 
z
" transform="scale(0.015625)"/>
      </defs>
      <use xlink:href="#DejaVuSans-45"/>
      <use xlink:href="#DejaVuSans-6b" x="63.183594"/>
      <use xlink:href="#DejaVuSans-65" x="117.46875"/>
      <use xlink:href="#DejaVuSans-6c" x="178.992188"/>
     </g>
    </g>
    <g id="patch_124">
     <path d="M 905.0045 87.512813 
L 925.0045 87.512813 
L 925.0045 80.512813 
L 905.0045 80.512813 
z
" style="fill: #e9c46a"/>
    </g>
    <g id="text_35">
     <!-- Freude -->
     <g transform="translate(933.0045 87.512813) scale(0.1 -0.1)">
      <use xlink:href="#DejaVuSans-46"/>
      <use xlink:href="#DejaVuSans-72" x="50.269531"/>
      <use xlink:href="#DejaVuSans-65" x="89.132812"/>
      <use xlink:href="#DejaVuSans-75" x="150.65625"/>
      <use xlink:href="#DejaVuSans-64" x="214.035156"/>
      <use xlink:href="#DejaVuSans-65" x="277.511719"/>
     </g>
    </g>
    <g id="patch_125">
     <path d="M 905.0045 102.190938 
L 925.0045 102.190938 
L 925.0045 95.190938 
L 905.0045 95.190938 
z
" style="fill: #dbdbd2"/>
    </g>
    <g id="text_36">
     <!-- Keine davon -->
     <g transform="translate(933.0045 102.190938) scale(0.1 -0.1)">
      <defs>
       <path id="DejaVuSans-4b" d="M 628 4666 
L 1259 4666 
L 1259 2694 
L 3353 4666 
L 4166 4666 
L 1850 2491 
L 4331 0 
L 3500 0 
L 1259 2247 
L 1259 0 
L 628 0 
L 628 4666 
z
" transform="scale(0.015625)"/>
       <path id="DejaVuSans-76" d="M 191 3500 
L 800 3500 
L 1894 563 
L 2988 3500 
L 3597 3500 
L 2284 0 
L 1503 0 
L 191 3500 
z
" transform="scale(0.015625)"/>
      </defs>
      <use xlink:href="#DejaVuSans-4b"/>
      <use xlink:href="#DejaVuSans-65" x="60.576172"/>
      <use xlink:href="#DejaVuSans-69" x="122.099609"/>
      <use xlink:href="#DejaVuSans-6e" x="149.882812"/>
      <use xlink:href="#DejaVuSans-65" x="213.261719"/>
      <use xlink:href="#DejaVuSans-20" x="274.785156"/>
      <use xlink:href="#DejaVuSans-64" x="306.572266"/>
      <use xlink:href="#DejaVuSans-61" x="370.048828"/>
      <use xlink:href="#DejaVuSans-76" x="431.328125"/>
      <use xlink:href="#DejaVuSans-6f" x="490.507812"/>
      <use xlink:href="#DejaVuSans-6e" x="551.689453"/>
     </g>
    </g>
    <g id="patch_126">
     <path d="M 905.0045 116.869063 
L 925.0045 116.869063 
L 925.0045 109.869063 
L 905.0045 109.869063 
z
" style="fill: #83b5ce"/>
    </g>
    <g id="text_37">
     <!-- Traurigkeit -->
     <g transform="translate(933.0045 116.869063) scale(0.1 -0.1)">
      <use xlink:href="#DejaVuSans-54"/>
      <use xlink:href="#DejaVuSans-72" x="46.333984"/>
      <use xlink:href="#DejaVuSans-61" x="87.447266"/>
      <use xlink:href="#DejaVuSans-75" x="148.726562"/>
      <use xlink:href="#DejaVuSans-72" x="212.105469"/>
      <use xlink:href="#DejaVuSans-69" x="253.21875"/>
      <use xlink:href="#DejaVuSans-67" x="281.001953"/>
      <use xlink:href="#DejaVuSans-6b" x="344.478516"/>
      <use xlink:href="#DejaVuSans-65" x="398.763672"/>
      <use xlink:href="#DejaVuSans-69" x="460.287109"/>
      <use xlink:href="#DejaVuSans-74" x="488.070312"/>
     </g>
    </g>
    <g id="patch_127">
     <path d="M 905.0045 131.547188 
L 925.0045 131.547188 
L 925.0045 124.547188 
L 905.0045 124.547188 
z
" style="fill: #e36b53"/>
    </g>
    <g id="text_38">
     <!-- Wut -->
     <g transform="translate(933.0045 131.547188) scale(0.1 -0.1)">
      <use xlink:href="#DejaVuSans-57"/>
      <use xlink:href="#DejaVuSans-75" x="95.251953"/>
      <use xlink:href="#DejaVuSans-74" x="158.630859"/>
     </g>
    </g>
   </g>
  </g>
 </g>
 <defs>
  <clipPath id="pc6733ae147">
   <rect x="50.87" y="26.88" width="804.89" height="491.86"/>
  </clipPath>
 </defs>
</svg>
