<svg class="main-svg" xmlns="http://www.w3.org/2000/svg" xmlns:xlink="http://www.w3.org/1999/xlink" width="700" height="500" style="" viewBox="0 0 700 500"><rect x="0" y="0" width="700" height="500" style="fill: rgb(255, 255, 255); fill-opacity: 1;"/><defs id="defs-8dca28"><g class="clips"><clipPath id="clip8dca28xyplot" class="plotclip"><rect width="462" height="248"/></clipPath><clipPath class="axesclip" id="clip8dca28x"><rect x="105" y="0" width="462" height="500"/></clipPath><clipPath class="axesclip" id="clip8dca28y"><rect x="0" y="100" width="700" height="248"/></clipPath><clipPath class="axesclip" id="clip8dca28xy"><rect x="105" y="100" width="462" height="248"/></clipPath></g><g class="gradients"/><g class="patterns"/></defs><g class="bglayer"><rect class="bg" x="105" y="100" width="462" height="248" style="fill: rgb(229, 236, 246); fill-opacity: 1; stroke-width: 0;"/></g><g class="layer-below"><g class="imagelayer"/><g class="shapelayer"/></g><g class="cartesianlayer"><g class="subplot xy"><g class="layer-subplot"><g class="shapelayer"/><g class="imagelayer"/></g><g class="minor-gridlayer"><g class="x"/><g class="y"/></g><g class="gridlayer"><g class="x"><path class="xgrid crisp" transform="translate(138,0)" d="M0,100v248" style="stroke: rgb(255, 255, 255); stroke-opacity: 1; stroke-width: 1px;"/><path class="xgrid crisp" transform="translate(204,0)" d="M0,100v248" style="stroke: rgb(255, 255, 255); stroke-opacity: 1; stroke-width: 1px;"/><path class="xgrid crisp" transform="translate(270,0)" d="M0,100v248" style="stroke: rgb(255, 255, 255); stroke-opacity: 1; stroke-width: 1px;"/><path class="xgrid crisp" transform="translate(336,0)" d="M0,100v248" style="stroke: rgb(255, 255, 255); stroke-opacity: 1; stroke-width: 1px;"/><path class="xgrid crisp" transform="translate(402,0)" d="M0,100v248" style="stroke: rgb(255, 255, 255); stroke-opacity: 1; stroke-width: 1px;"/><path class="xgrid crisp" transform="translate(468,0)" d="M0,100v248" style="stroke: rgb(255, 255, 255); stroke-opacity: 1; stroke-width: 1px;"/><path class="xgrid crisp" transform="translate(534,0)" d="M0,100v248" style="stroke: rgb(255, 255, 255); stroke-opacity: 1; stroke-width: 1px;"/></g><g class="y"><path class="ygrid crisp" transform="translate(0,327.56)" d="M105,0h462" style="stroke: rgb(255, 255, 255); stroke-opacity: 1; stroke-width: 1px;"/><path class="ygrid crisp" transform="translate(0,287.21000000000004)" d="M105,0h462" style="stroke: rgb(255, 255, 255); stroke-opacity: 1; stroke-width: 1px;"/><path class="ygrid crisp" transform="translate(0,246.87)" d="M105,0h462" style="stroke: rgb(255, 255, 255); stroke-opacity: 1; stroke-width: 1px;"/><path class="ygrid crisp" transform="translate(0,206.51999999999998)" d="M105,0h462" style="stroke: rgb(255, 255, 255); stroke-opacity: 1; stroke-width: 1px;"/><path class="ygrid crisp" transform="translate(0,166.17000000000002)" d="M105,0h462" style="stroke: rgb(255, 255, 255); stroke-opacity: 1; stroke-width: 1px;"/><path class="ygrid crisp" transform="translate(0,125.82)" d="M105,0h462" style="stroke: rgb(255, 255, 255); stroke-opacity: 1; stroke-width: 1px;"/></g></g><g class="zerolinelayer"/><g class="layer-between"><g class="shapelayer"/><g class="imagelayer"/></g><path class="xlines-below"/><path class="ylines-below"/><g class="overlines-below"/><g class="xaxislayer-below"/><g class="yaxislayer-below"/><g class="overaxes-below"/><g class="overplot"><g class="xy" transform="translate(105,100)" clip-path="url(#clip8dca28xyplot)"><g class="scatterlayer mlayer"><g class="trace scatter traced2e21e" style="stroke-miterlimit: 2; opacity: 1;"><g class="fills"/><g class="errorbars"/><g class="lines"/><g class="points"><path class="point plotly-customdata" transform="translate(33,25.82)" d="M10.46,0A10.46,10.46 0 1,1 0,-10.46A10.46,10.46 0 0,1 10.46,0Z" style="opacity: 0.7; stroke-width: 1px; fill: rgb(42, 157, 143); fill-opacity: 1; stroke: rgb(255, 255, 255); stroke-opacity: 1;"/><path class="point plotly-customdata" transform="translate(99,25.82)" d="M11.39,0A11.39,11.39 0 1,1 0,-11.39A11.39,11.39 0 0,1 11.39,0Z" style="opacity: 0.7; stroke-width: 1px; fill: rgb(42, 157, 143); fill-opacity: 1; stroke: rgb(255, 255, 255); stroke-opacity: 1;"/><path class="point plotly-customdata" transform="translate(165,25.82)" d="M12.01,0A12.01,12.01 0 1,1 0,-12.01A12.01,12.01 0 0,1 12.01,0Z" style="opacity: 0.7; stroke-width: 1px; fill: rgb(42, 157, 143); fill-opacity: 1; stroke: rgb(255, 255, 255); stroke-opacity: 1;"/><path class="point plotly-customdata" transform="translate(231,25.82)" d="M10.34,0A10.34,10.34 0 1,1 0,-10.34A10.34,10.34 0 0,1 10.34,0Z" style="opacity: 0.7; stroke-width: 1px; fill: rgb(42, 157, 143); fill-opacity: 1; stroke: rgb(255, 255, 255); stroke-opacity: 1;"/><path class="point plotly-customdata" transform="translate(297,25.82)" d="M11.8,0A11.8,11.8 0 1,1 0,-11.8A11.8,11.8 0 0,1 11.8,0Z" style="opacity: 0.7; stroke-width: 1px; fill: rgb(42, 157, 143); fill-opacity: 1; stroke: rgb(255, 255, 255); stroke-opacity: 1;"/></g><g class="text"/></g><g class="trace scatter trace139459" style="stroke-miterlimit: 2; opacity: 1;"><g class="fills"/><g class="errorbars"/><g class="lines"/><g class="points"><path class="point plotly-customdata" transform="translate(33,66.17)" d="M0,0A0,0 0 1,1 0,-0A0,0 0 0,1 0,0Z" style="opacity: 0.7; stroke-width: 1px; fill: rgb(38, 70, 83); fill-opacity: 1; stroke: rgb(255, 255, 255); stroke-opacity: 1;"/><path class="point plotly-customdata" transform="translate(99,66.17)" d="M0,0A0,0 0 1,1 0,-0A0,0 0 0,1 0,0Z" style="opacity: 0.7; stroke-width: 1px; fill: rgb(38, 70, 83); fill-opacity: 1; stroke: rgb(255, 255, 255); stroke-opacity: 1;"/><path class="point plotly-customdata" transform="translate(165,66.17)" d="M0,0A0,0 0 1,1 0,-0A0,0 0 0,1 0,0Z" style="opacity: 0.7; stroke-width: 1px; fill: rgb(38, 70, 83); fill-opacity: 1; stroke: rgb(255, 255, 255); stroke-opacity: 1;"/><path class="point plotly-customdata" transform="translate(231,66.17)" d="M0,0A0,0 0 1,1 0,-0A0,0 0 0,1 0,0Z" style="opacity: 0.7; stroke-width: 1px; fill: rgb(38, 70, 83); fill-opacity: 1; stroke: rgb(255, 255, 255); stroke-opacity: 1;"/><path class="point plotly-customdata" transform="translate(297,66.17)" d="M0,0A0,0 0 1,1 0,-0A0,0 0 0,1 0,0Z" style="opacity: 0.7; stroke-width: 1px; fill: rgb(38, 70, 83); fill-opacity: 1; stroke: rgb(255, 255, 255); stroke-opacity: 1;"/></g><g class="text"/></g><g class="trace scatter trace9d0e89" style="stroke-miterlimit: 2; opacity: 1;"><g class="fills"/><g class="errorbars"/><g class="lines"/><g class="points"><path class="point plotly-customdata" transform="translate(33,106.52)" d="M5.61,0A5.61,5.61 0 1,1 0,-5.61A5.61,5.61 0 0,1 5.61,0Z" style="opacity: 0.7; stroke-width: 1px; fill: rgb(233, 196, 106); fill-opacity: 1; stroke: rgb(255, 255, 255); stroke-opacity: 1;"/><path class="point plotly-customdata" transform="translate(99,106.52)" d="M3.37,0A3.37,3.37 0 1,1 0,-3.37A3.37,3.37 0 0,1 3.37,0Z" style="opacity: 0.7; stroke-width: 1px; fill: rgb(233, 196, 106); fill-opacity: 1; stroke: rgb(255, 255, 255); stroke-opacity: 1;"/><path class="point plotly-customdata" transform="translate(165,106.52)" d="M4.43,0A4.43,4.43 0 1,1 0,-4.43A4.43,4.43 0 0,1 4.43,0Z" style="opacity: 0.7; stroke-width: 1px; fill: rgb(233, 196, 106); fill-opacity: 1; stroke: rgb(255, 255, 255); stroke-opacity: 1;"/><path class="point plotly-customdata" transform="translate(231,106.52)" d="M4.52,0A4.52,4.52 0 1,1 0,-4.52A4.52,4.52 0 0,1 4.52,0Z" style="opacity: 0.7; stroke-width: 1px; fill: rgb(233, 196, 106); fill-opacity: 1; stroke: rgb(255, 255, 255); stroke-opacity: 1;"/><path class="point plotly-customdata" transform="translate(297,106.52)" d="M5.58,0A5.58,5.58 0 1,1 0,-5.58A5.58,5.58 0 0,1 5.58,0Z" style="opacity: 0.7; stroke-width: 1px; fill: rgb(233, 196, 106); fill-opacity: 1; stroke: rgb(255, 255, 255); stroke-opacity: 1;"/></g><g class="text"/></g><g class="trace scatter trace0d628f" style="stroke-miterlimit: 2; opacity: 1;"><g class="fills"/><g class="errorbars"/><g class="lines"/><g class="points"><path class="point plotly-customdata" transform="translate(33,146.87)" d="M13.25,0A13.25,13.25 0 1,1 0,-13.25A13.25,13.25 0 0,1 13.25,0Z" style="opacity: 0.7; stroke-width: 1px; fill: rgb(219, 219, 210); fill-opacity: 1; stroke: rgb(255, 255, 255); stroke-opacity: 1;"/><path class="point plotly-customdata" transform="translate(99,146.87)" d="M12.25,0A12.25,12.25 0 1,1 0,-12.25A12.25,12.25 0 0,1 12.25,0Z" style="opacity: 0.7; stroke-width: 1px; fill: rgb(219, 219, 210); fill-opacity: 1; stroke: rgb(255, 255, 255); stroke-opacity: 1;"/><path class="point plotly-customdata" transform="translate(165,146.87)" d="M11.82,0A11.82,11.82 0 1,1 0,-11.82A11.82,11.82 0 0,1 11.82,0Z" style="opacity: 0.7; stroke-width: 1px; fill: rgb(219, 219, 210); fill-opacity: 1; stroke: rgb(255, 255, 255); stroke-opacity: 1;"/><path class="point plotly-customdata" transform="translate(231,146.87)" d="M13.15,0A13.15,13.15 0 1,1 0,-13.15A13.15,13.15 0 0,1 13.15,0Z" style="opacity: 0.7; stroke-width: 1px; fill: rgb(219, 219, 210); fill-opacity: 1; stroke: rgb(255, 255, 255); stroke-opacity: 1;"/><path class="point plotly-customdata" transform="translate(297,146.87)" d="M11.89,0A11.89,11.89 0 1,1 0,-11.89A11.89,11.89 0 0,1 11.89,0Z" style="opacity: 0.7; stroke-width: 1px; fill: rgb(219, 219, 210); fill-opacity: 1; stroke: rgb(255, 255, 255); stroke-opacity: 1;"/></g><g class="text"/></g><g class="trace scatter trace151a28" style="stroke-miterlimit: 2; opacity: 1;"><g class="fills"/><g class="errorbars"/><g class="lines"/><g class="points"><path class="point plotly-customdata" transform="translate(33,187.21)" d="M0,0A0,0 0 1,1 0,-0A0,0 0 0,1 0,0Z" style="opacity: 0.7; stroke-width: 1px; fill: rgb(131, 181, 206); fill-opacity: 1; stroke: rgb(255, 255, 255); stroke-opacity: 1;"/><path class="point plotly-customdata" transform="translate(99,187.21)" d="M0,0A0,0 0 1,1 0,-0A0,0 0 0,1 0,0Z" style="opacity: 0.7; stroke-width: 1px; fill: rgb(131, 181, 206); fill-opacity: 1; stroke: rgb(255, 255, 255); stroke-opacity: 1;"/><path class="point plotly-customdata" transform="translate(165,187.21)" d="M1.48,0A1.48,1.48 0 1,1 0,-1.48A1.48,1.48 0 0,1 1.48,0Z" style="opacity: 0.7; stroke-width: 1px; fill: rgb(131, 181, 206); fill-opacity: 1; stroke: rgb(255, 255, 255); stroke-opacity: 1;"/><path class="point plotly-customdata" transform="translate(231,187.21)" d="M1.77,0A1.77,1.77 0 1,1 0,-1.77A1.77,1.77 0 0,1 1.77,0Z" style="opacity: 0.7; stroke-width: 1px; fill: rgb(131, 181, 206); fill-opacity: 1; stroke: rgb(255, 255, 255); stroke-opacity: 1;"/><path class="point plotly-customdata" transform="translate(297,187.21)" d="M1.44,0A1.44,1.44 0 1,1 0,-1.44A1.44,1.44 0 0,1 1.44,0Z" style="opacity: 0.7; stroke-width: 1px; fill: rgb(131, 181, 206); fill-opacity: 1; stroke: rgb(255, 255, 255); stroke-opacity: 1;"/></g><g class="text"/></g><g class="trace scatter trace776c6a" style="stroke-miterlimit: 2; opacity: 1;"><g class="fills"/><g class="errorbars"/><g class="lines"/><g class="points"><path class="point plotly-customdata" transform="translate(33,227.56)" d="M5.15,0A5.15,5.15 0 1,1 0,-5.15A5.15,5.15 0 0,1 5.15,0Z" style="opacity: 0.7; stroke-width: 1px; fill: rgb(227, 107, 83); fill-opacity: 1; stroke: rgb(255, 255, 255); stroke-opacity: 1;"/><path class="point plotly-customdata" transform="translate(99,227.56)" d="M7.19,0A7.19,7.19 0 1,1 0,-7.19A7.19,7.19 0 0,1 7.19,0Z" style="opacity: 0.7; stroke-width: 1px; fill: rgb(227, 107, 83); fill-opacity: 1; stroke: rgb(255, 255, 255); stroke-opacity: 1;"/><path class="point plotly-customdata" transform="translate(165,227.56)" d="M6.09,0A6.09,6.09 0 1,1 0,-6.09A6.09,6.09 0 0,1 6.09,0Z" style="opacity: 0.7; stroke-width: 1px; fill: rgb(227, 107, 83); fill-opacity: 1; stroke: rgb(255, 255, 255); stroke-opacity: 1;"/><path class="point plotly-customdata" transform="translate(231,227.56)" d="M6.27,0A6.27,6.27 0 1,1 0,-6.27A6.27,6.27 0 0,1 6.27,0Z" style="opacity: 0.7; stroke-width: 1px; fill: rgb(227, 107, 83); fill-opacity: 1; stroke: rgb(255, 255, 255); stroke-opacity: 1;"/><path class="point plotly-customdata" transform="translate(297,227.56)" d="M5.39,0A5.39,5.39 0 1,1 0,-5.39A5.39,5.39 0 0,1 5.39,0Z" style="opacity: 0.7; stroke-width: 1px; fill: rgb(227, 107, 83); fill-opacity: 1; stroke: rgb(255, 255, 255); stroke-opacity: 1;"/></g><g class="text"/></g></g></g></g><path class="xlines-above crisp" d="M0,0" style="fill: none;"/><path class="ylines-above crisp" d="M0,0" style="fill: none;"/><g class="overlines-above"/><g class="xaxislayer-above"><g class="xtick"><text text-anchor="start" x="0" y="361" transform="translate(138,0) rotate(29.999999999999996,0,355)" style="font-family: 'Open Sans', verdana, arial, sans-serif; font-size: 12px; fill: rgb(42, 63, 95); fill-opacity: 1; white-space: pre; opacity: 1;">CDU</text></g><g class="xtick"><text text-anchor="start" x="0" y="361" transform="translate(204,0) rotate(29.999999999999996,0,355)" style="font-family: 'Open Sans', verdana, arial, sans-serif; font-size: 12px; fill: rgb(42, 63, 95); fill-opacity: 1; white-space: pre; opacity: 1;">Die Grünen</text></g><g class="xtick"><text text-anchor="start" x="0" y="361" transform="translate(270,0) rotate(29.999999999999996,0,355)" style="font-family: 'Open Sans', verdana, arial, sans-serif; font-size: 12px; fill: rgb(42, 63, 95); fill-opacity: 1; white-space: pre; opacity: 1;">FDP</text></g><g class="xtick"><text text-anchor="start" x="0" y="361" transform="translate(336,0) rotate(29.999999999999996,0,355)" style="font-family: 'Open Sans', verdana, arial, sans-serif; font-size: 12px; fill: rgb(42, 63, 95); fill-opacity: 1; white-space: pre; opacity: 1;">SPD</text></g><g class="xtick"><text text-anchor="start" x="0" y="361" transform="translate(402,0) rotate(29.999999999999996,0,355)" style="font-family: 'Open Sans', verdana, arial, sans-serif; font-size: 12px; fill: rgb(42, 63, 95); fill-opacity: 1; white-space: pre; opacity: 1;">UBT-FWG-UBM</text></g><g class="xtick"><text text-anchor="start" x="0" y="361" transform="translate(468,0) rotate(29.999999999999996,0,355)" style="font-family: 'Open Sans', verdana, arial, sans-serif; font-size: 12px; fill: rgb(42, 63, 95); fill-opacity: 1; white-space: pre; opacity: 1;">Die Linken</text></g><g class="xtick"><text text-anchor="start" x="0" y="361" transform="translate(534,0) rotate(29.999999999999996,0,355)" style="font-family: 'Open Sans', verdana, arial, sans-serif; font-size: 12px; fill: rgb(42, 63, 95); fill-opacity: 1; white-space: pre; opacity: 1;">AFD</text></g></g><g class="yaxislayer-above"><g class="ytick"><text text-anchor="end" x="104" y="4.199999999999999" transform="translate(0,327.56)" style="font-family: 'Open Sans', verdana, arial, sans-serif; font-size: 12px; fill: rgb(42, 63, 95); fill-opacity: 1; white-space: pre; opacity: 1;">Wut</text></g><g class="ytick"><text text-anchor="end" x="104" y="4.199999999999999" transform="translate(0,287.21000000000004)" style="font-family: 'Open Sans', verdana, arial, sans-serif; font-size: 12px; fill: rgb(42, 63, 95); fill-opacity: 1; white-space: pre; opacity: 1;">Traurigkeit</text></g><g class="ytick"><text text-anchor="end" x="104" y="4.199999999999999" transform="translate(0,246.87)" style="font-family: 'Open Sans', verdana, arial, sans-serif; font-size: 12px; fill: rgb(42, 63, 95); fill-opacity: 1; white-space: pre; opacity: 1;">Keine davon</text></g><g class="ytick"><text text-anchor="end" x="104" y="4.199999999999999" transform="translate(0,206.51999999999998)" style="font-family: 'Open Sans', verdana, arial, sans-serif; font-size: 12px; fill: rgb(42, 63, 95); fill-opacity: 1; white-space: pre; opacity: 1;">Freude</text></g><g class="ytick"><text text-anchor="end" x="104" y="4.199999999999999" transform="translate(0,166.17000000000002)" style="font-family: 'Open Sans', verdana, arial, sans-serif; font-size: 12px; fill: rgb(42, 63, 95); fill-opacity: 1; white-space: pre; opacity: 1;">Ekel</text></g><g class="ytick"><text text-anchor="end" x="104" y="4.199999999999999" transform="translate(0,125.82)" style="font-family: 'Open Sans', verdana, arial, sans-serif; font-size: 12px; fill: rgb(42, 63, 95); fill-opacity: 1; white-space: pre; opacity: 1;">Angst</text></g></g><g class="overaxes-above"/></g></g><g class="polarlayer"/><g class="smithlayer"/><g class="ternarylayer"/><g class="geolayer"/><g class="funnelarealayer"/><g class="pielayer"/><g class="iciclelayer"/><g class="treemaplayer"/><g class="sunburstlayer"/><g class="glimages"/><defs id="topdefs-8dca28"><g class="clips"/><clipPath id="legend8dca28"><rect width="112" height="143" x="0" y="0"/></clipPath></defs><g class="layer-above"><g class="imagelayer"/><g class="shapelayer"/></g><g class="infolayer"><g class="legend" pointer-events="all" transform="translate(576.24,100)"><rect class="bg" shape-rendering="crispEdges" width="112" height="143" x="0" y="0" style="stroke: rgb(68, 68, 68); stroke-opacity: 1; fill: rgb(255, 255, 255); fill-opacity: 1; stroke-width: 0px;"/><g class="scrollbox" transform="" clip-path="url(#legend8dca28)"><text class="legendtitletext" text-anchor="start" x="2" y="18.2" style="font-family: 'Open Sans', verdana, arial, sans-serif; font-size: 14px; fill: rgb(42, 63, 95); fill-opacity: 1; white-space: pre;">Emotion</text><g class="groups" transform=""><g class="traces" transform="translate(0,32.7)" style="opacity: 1;"><text class="legendtext" text-anchor="start" x="40" y="4.680000000000001" style="font-family: 'Open Sans', verdana, arial, sans-serif; font-size: 12px; fill: rgb(42, 63, 95); fill-opacity: 1; white-space: pre;">Angst</text><g class="layers" style="opacity: 1;"><g class="legendfill"/><g class="legendlines"/><g class="legendsymbols"><g class="legendpoints"><path class="scatterpts" transform="translate(20,0)" d="M6,0A6,6 0 1,1 0,-6A6,6 0 0,1 6,0Z" style="opacity: 0.7; stroke-width: 2px; fill: rgb(42, 157, 143); fill-opacity: 1; stroke: rgb(255, 255, 255); stroke-opacity: 1;"/></g></g></g><rect class="legendtoggle" x="0" y="-9.5" width="106.734375" height="19" style="fill: rgb(0, 0, 0); fill-opacity: 0;"/></g></g><g class="groups" transform=""><g class="traces" transform="translate(0,51.7)" style="opacity: 1;"><text class="legendtext" text-anchor="start" x="40" y="4.680000000000001" style="font-family: 'Open Sans', verdana, arial, sans-serif; font-size: 12px; fill: rgb(42, 63, 95); fill-opacity: 1; white-space: pre;">Ekel</text><g class="layers" style="opacity: 1;"><g class="legendfill"/><g class="legendlines"/><g class="legendsymbols"><g class="legendpoints"><path class="scatterpts" transform="translate(20,0)" d="M1,0A1,1 0 1,1 0,-1A1,1 0 0,1 1,0Z" style="opacity: 0.7; stroke-width: 2px; fill: rgb(38, 70, 83); fill-opacity: 1; stroke: rgb(255, 255, 255); stroke-opacity: 1;"/></g></g></g><rect class="legendtoggle" x="0" y="-9.5" width="106.734375" height="19" style="fill: rgb(0, 0, 0); fill-opacity: 0;"/></g></g><g class="groups" transform=""><g class="traces" transform="translate(0,70.7)" style="opacity: 1;"><text class="legendtext" text-anchor="start" x="40" y="4.680000000000001" style="font-family: 'Open Sans', verdana, arial, sans-serif; font-size: 12px; fill: rgb(42, 63, 95); fill-opacity: 1; white-space: pre;">Freude</text><g class="layers" style="opacity: 1;"><g class="legendfill"/><g class="legendlines"/><g class="legendsymbols"><g class="legendpoints"><path class="scatterpts" transform="translate(20,0)" d="M6,0A6,6 0 1,1 0,-6A6,6 0 0,1 6,0Z" style="opacity: 0.7; stroke-width: 2px; fill: rgb(233, 196, 106); fill-opacity: 1; stroke: rgb(255, 255, 255); stroke-opacity: 1;"/></g></g></g><rect class="legendtoggle" x="0" y="-9.5" width="106.734375" height="19" style="fill: rgb(0, 0, 0); fill-opacity: 0;"/></g></g><g class="groups" transform=""><g class="traces" transform="translate(0,89.7)" style="opacity: 1;"><text class="legendtext" text-anchor="start" x="40" y="4.680000000000001" style="font-family: 'Open Sans', verdana, arial, sans-serif; font-size: 12px; fill: rgb(42, 63, 95); fill-opacity: 1; white-space: pre;">Keine davon</text><g class="layers" style="opacity: 1;"><g class="legendfill"/><g class="legendlines"/><g class="legendsymbols"><g class="legendpoints"><path class="scatterpts" transform="translate(20,0)" d="M6,0A6,6 0 1,1 0,-6A6,6 0 0,1 6,0Z" style="opacity: 0.7; stroke-width: 2px; fill: rgb(219, 219, 210); fill-opacity: 1; stroke: rgb(255, 255, 255); stroke-opacity: 1;"/></g></g></g><rect class="legendtoggle" x="0" y="-9.5" width="106.734375" height="19" style="fill: rgb(0, 0, 0); fill-opacity: 0;"/></g></g><g class="groups" transform=""><g class="traces" transform="translate(0,108.7)" style="opacity: 1;"><text class="legendtext" text-anchor="start" x="40" y="4.680000000000001" style="font-family: 'Open Sans', verdana, arial, sans-serif; font-size: 12px; fill: rgb(42, 63, 95); fill-opacity: 1; white-space: pre;">Traurigkeit</text><g class="layers" style="opacity: 1;"><g class="legendfill"/><g class="legendlines"/><g class="legendsymbols"><g class="legendpoints"><path class="scatterpts" transform="translate(20,0)" d="M6,0A6,6 0 1,1 0,-6A6,6 0 0,1 6,0Z" style="opacity: 0.7; stroke-width: 2px; fill: rgb(131, 181, 206); fill-opacity: 1; stroke: rgb(255, 255, 255); stroke-opacity: 1;"/></g></g></g><rect class="legendtoggle" x="0" y="-9.5" width="106.734375" height="19" style="fill: rgb(0, 0, 0); fill-opacity: 0;"/></g></g><g class="groups" transform=""><g class="traces" transform="translate(0,127.7)" style="opacity: 1;"><text class="legendtext" text-anchor="start" x="40" y="4.680000000000001" style="font-family: 'Open Sans', verdana, arial, sans-serif; font-size: 12px; fill: rgb(42, 63, 95); fill-opacity: 1; white-space: pre;">Wut</text><g class="layers" style="opacity: 1;"><g class="legendfill"/><g class="legendlines"/><g class="legendsymbols"><g class="legendpoints"><path class="scatterpts" transform="translate(20,0)" d="M6,0A6,6 0 1,1 0,-6A6,6 0 0,1 6,0Z" style="opacity: 0.7; stroke-width: 2px; fill: rgb(227, 107, 83); fill-opacity: 1; stroke: rgb(255, 255, 255); stroke-opacity: 1;"/></g></g></g><rect class="legendtoggle" x="0" y="-9.5" width="106.734375" height="19" style="fill: rgb(0, 0, 0); fill-opacity: 0;"/></g></g></g><rect class="scrollbar" rx="20" ry="3" width="0" height="0" x="0" y="0" style="fill: rgb(128, 139, 164); fill-opacity: 1;"/></g><g class="slider-container"><g class="slider-group" transform="translate(151,408)"><text class="slider-label" text-anchor="left" data-notex="1" x="0" y="15.600000000000001" style="font-family: 'Open Sans', verdana, arial, sans-serif; font-size: 12px; fill: rgb(42, 63, 95); fill-opacity: 1; white-space: pre;">Jahr=2006</text><rect class="slider-rail-rect" width="400" height="5" rx="2" ry="2" shape-rendering="crispEdges" transform="translate(8,31.5)" style="stroke: rgb(190, 200, 217); stroke-opacity: 1; fill: rgb(248, 250, 252); fill-opacity: 1; stroke-width: 1px;"/><g class="slider-labels"><g class="slider-label-group" transform="translate(10,71.6)"><text class="slider-label" text-anchor="middle" data-notex="1" x="0" y="0" style="font-family: 'Open Sans', verdana, arial, sans-serif; font-size: 12px; fill: rgb(42, 63, 95); fill-opacity: 1; white-space: pre;">2006</text></g><g class="slider-label-group" transform="translate(54,71.6)"><text class="slider-label" text-anchor="middle" data-notex="1" x="0" y="0" style="font-family: 'Open Sans', verdana, arial, sans-serif; font-size: 12px; fill: rgb(42, 63, 95); fill-opacity: 1; white-space: pre;">2008</text></g><g class="slider-label-group" transform="translate(98,71.6)"><text class="slider-label" text-anchor="middle" data-notex="1" x="0" y="0" style="font-family: 'Open Sans', verdana, arial, sans-serif; font-size: 12px; fill: rgb(42, 63, 95); fill-opacity: 1; white-space: pre;">2010</text></g><g class="slider-label-group" transform="translate(142,71.6)"><text class="slider-label" text-anchor="middle" data-notex="1" x="0" y="0" style="font-family: 'Open Sans', verdana, arial, sans-serif; font-size: 12px; fill: rgb(42, 63, 95); fill-opacity: 1; white-space: pre;">2012</text></g><g class="slider-label-group" transform="translate(186,71.6)"><text class="slider-label" text-anchor="middle" data-notex="1" x="0" y="0" style="font-family: 'Open Sans', verdana, arial, sans-serif; font-size: 12px; fill: rgb(42, 63, 95); fill-opacity: 1; white-space: pre;">2014</text></g><g class="slider-label-group" transform="translate(230,71.6)"><text class="slider-label" text-anchor="middle" data-notex="1" x="0" y="0" style="font-family: 'Open Sans', verdana, arial, sans-serif; font-size: 12px; fill: rgb(42, 63, 95); fill-opacity: 1; white-space: pre;">2016</text></g><g class="slider-label-group" transform="translate(274,71.6)"><text class="slider-label" text-anchor="middle" data-notex="1" x="0" y="0" style="font-family: 'Open Sans', verdana, arial, sans-serif; font-size: 12px; fill: rgb(42, 63, 95); fill-opacity: 1; white-space: pre;">2018</text></g><g class="slider-label-group" transform="translate(318,71.6)"><text class="slider-label" text-anchor="middle" data-notex="1" x="0" y="0" style="font-family: 'Open Sans', verdana, arial, sans-serif; font-size: 12px; fill: rgb(42, 63, 95); fill-opacity: 1; white-space: pre;">2020</text></g><g class="slider-label-group" transform="translate(362,71.6)"><text class="slider-label" text-anchor="middle" data-notex="1" x="0" y="0" style="font-family: 'Open Sans', verdana, arial, sans-serif; font-size: 12px; fill: rgb(42, 63, 95); fill-opacity: 1; white-space: pre;">2022</text></g><g class="slider-label-group" transform="translate(406,71.6)"><text class="slider-label" text-anchor="middle" data-notex="1" x="0" y="0" style="font-family: 'Open Sans', verdana, arial, sans-serif; font-size: 12px; fill: rgb(42, 63, 95); fill-opacity: 1; white-space: pre;">2024</text></g></g><rect class="slider-tick-rect" width="1px" shape-rendering="crispEdges" height="7" transform="translate(9.5,49)" style="fill: rgb(51, 51, 51); fill-opacity: 1;"/><rect class="slider-tick-rect" width="1px" shape-rendering="crispEdges" height="4" transform="translate(31.5,49)" style="fill: rgb(51, 51, 51); fill-opacity: 1;"/><rect class="slider-tick-rect" width="1px" shape-rendering="crispEdges" height="7" transform="translate(53.5,49)" style="fill: rgb(51, 51, 51); fill-opacity: 1;"/><rect class="slider-tick-rect" width="1px" shape-rendering="crispEdges" height="4" transform="translate(75.5,49)" style="fill: rgb(51, 51, 51); fill-opacity: 1;"/><rect class="slider-tick-rect" width="1px" shape-rendering="crispEdges" height="7" transform="translate(97.5,49)" style="fill: rgb(51, 51, 51); fill-opacity: 1;"/><rect class="slider-tick-rect" width="1px" shape-rendering="crispEdges" height="4" transform="translate(119.5,49)" style="fill: rgb(51, 51, 51); fill-opacity: 1;"/><rect class="slider-tick-rect" width="1px" shape-rendering="crispEdges" height="7" transform="translate(141.5,49)" style="fill: rgb(51, 51, 51); fill-opacity: 1;"/><rect class="slider-tick-rect" width="1px" shape-rendering="crispEdges" height="4" transform="translate(163.5,49)" style="fill: rgb(51, 51, 51); fill-opacity: 1;"/><rect class="slider-tick-rect" width="1px" shape-rendering="crispEdges" height="7" transform="translate(185.5,49)" style="fill: rgb(51, 51, 51); fill-opacity: 1;"/><rect class="slider-tick-rect" width="1px" shape-rendering="crispEdges" height="4" transform="translate(207.5,49)" style="fill: rgb(51, 51, 51); fill-opacity: 1;"/><rect class="slider-tick-rect" width="1px" shape-rendering="crispEdges" height="7" transform="translate(229.5,49)" style="fill: rgb(51, 51, 51); fill-opacity: 1;"/><rect class="slider-tick-rect" width="1px" shape-rendering="crispEdges" height="4" transform="translate(251.50000000000003,49)" style="fill: rgb(51, 51, 51); fill-opacity: 1;"/><rect class="slider-tick-rect" width="1px" shape-rendering="crispEdges" height="7" transform="translate(273.5,49)" style="fill: rgb(51, 51, 51); fill-opacity: 1;"/><rect class="slider-tick-rect" width="1px" shape-rendering="crispEdges" height="4" transform="translate(295.5,49)" style="fill: rgb(51, 51, 51); fill-opacity: 1;"/><rect class="slider-tick-rect" width="1px" shape-rendering="crispEdges" height="7" transform="translate(317.5,49)" style="fill: rgb(51, 51, 51); fill-opacity: 1;"/><rect class="slider-tick-rect" width="1px" shape-rendering="crispEdges" height="4" transform="translate(339.5,49)" style="fill: rgb(51, 51, 51); fill-opacity: 1;"/><rect class="slider-tick-rect" width="1px" shape-rendering="crispEdges" height="7" transform="translate(361.5,49)" style="fill: rgb(51, 51, 51); fill-opacity: 1;"/><rect class="slider-tick-rect" width="1px" shape-rendering="crispEdges" height="4" transform="translate(383.5,49)" style="fill: rgb(51, 51, 51); fill-opacity: 1;"/><rect class="slider-tick-rect" width="1px" shape-rendering="crispEdges" height="7" transform="translate(405.5,49)" style="fill: rgb(51, 51, 51); fill-opacity: 1;"/><rect class="slider-rail-touch-rect" width="416" height="46" opacity="0" transform="translate(0,24)" style="pointer-events: all; fill: rgb(248, 250, 252); fill-opacity: 1;"/><rect class="slider-grip-rect" width="20" height="20" rx="10" ry="10" transform="translate(0,24)" style="pointer-events: all; stroke: rgb(190, 200, 217); stroke-opacity: 1; fill: rgb(248, 250, 252); fill-opacity: 1; stroke-width: 1px;"/></g></g><g class="g-gtitle"><text class="gtitle" x="350" y="50" text-anchor="middle" dy="0.7em" style="opacity: 1; font-family: 'Open Sans', verdana, arial, sans-serif; font-size: 17px; fill: rgb(42, 63, 95); fill-opacity: 1; white-space: pre;">Prozentuale Emotionsverteilung pro Partei von 2006 bis 2024</text></g><g class="g-xtitle"><text class="xtitle" x="336" y="430.0939453125" text-anchor="middle" style="opacity: 1; font-family: 'Open Sans', verdana, arial, sans-serif; font-size: 14px; fill: rgb(42, 63, 95); fill-opacity: 1; white-space: pre;">Partei</text></g><g class="g-ytitle"><text class="ytitle" transform="rotate(-90,17.865624999999994,224)" x="17.865624999999994" y="224" text-anchor="middle" style="opacity: 1; font-family: 'Open Sans', verdana, arial, sans-serif; font-size: 14px; fill: rgb(42, 63, 95); fill-opacity: 1; white-space: pre;">Emotion</text></g></g><g class="menulayer"><g class="updatemenu-container" style="cursor: pointer;"><g class="updatemenu-header-group" pointer-events="all"><g class="updatemenu-button" transform="translate(72,419)"><rect class="updatemenu-item-rect" rx="2" ry="2" shape-rendering="crispEdges" x="0" y="0" width="34" height="33" style="stroke: rgb(190, 200, 217); stroke-opacity: 1; fill: rgb(255, 255, 255); fill-opacity: 1; stroke-width: 1px;"/><text class="updatemenu-item-text" text-anchor="start" data-notex="1" x="12" y="19.5" style="font-family: 'Open Sans', verdana, arial, sans-serif; font-size: 12px; fill: rgb(42, 63, 95); fill-opacity: 1; white-space: pre;">▶</text></g><g class="updatemenu-button" transform="translate(108,419)"><rect class="updatemenu-item-rect" rx="2" ry="2" shape-rendering="crispEdges" x="0" y="0" width="34" height="33" style="stroke: rgb(190, 200, 217); stroke-opacity: 1; fill: rgb(255, 255, 255); fill-opacity: 1; stroke-width: 1px;"/><text class="updatemenu-item-text" text-anchor="start" data-notex="1" x="12" y="19.5" style="font-family: 'Open Sans', verdana, arial, sans-serif; font-size: 12px; fill: rgb(42, 63, 95); fill-opacity: 1; white-space: pre;">◼</text></g></g><g class="updatemenu-dropdown-button-group" updatemenu-active-index="-1" style="pointer-events: all;"><rect class="scrollbox-bg" opacity="0" x="0" y="0" width="0" height="0" style="pointer-events: all;"/></g></g></g></svg>